<svg xmlns="http://www.w3.org/2000/svg" role="img" focusable="false" aria-hidden="true" viewBox="0 0 30 30">
<path fill="#51b23f" d="M30,15.09A15,15,0,1,1,15.09,0,15,15,0,0,1,30,15.09Z"/>
	<path fill="#fff" d="M13.57,15.07a8.25,8.25,0,0,1,1.16-4.27c-.47-1-1.57-1.47-3-1.61V7.85H10.42V9.13H9.29V7.85H8V9.13H5.57v2H6.64v7.64H5.57v2.05H8v1.28H9.29V20.87h1.13v1.28h1.34V20.83a4.58,4.58,0,0,0,3-1.3A7.75,7.75,0,0,1,13.57,15.07ZM9.29,11.18h1.26c1.24,0,1.84.35,1.84,1.26s-.57,1.39-1.86,1.39H9.29Zm1.48,7.64H9.29v-3h1.48c1.46,0,2.2.42,2.2,1.45S12.22,18.82,10.77,18.82Z"/>
	<path fill="#fff" d="M14.27,15.07c0-4.18,2.77-6.61,5.95-6.61A5.34,5.34,0,0,1,24,10.1l-1.51,1.83a3.16,3.16,0,0,0-2.22-1c-1.73,0-3.1,1.53-3.1,4.06s1.21,4.1,3,4.1a3.32,3.32,0,0,0,2.47-1.18l1.5,1.79a5.17,5.17,0,0,1-4.07,1.85C16.94,21.54,14.27,19.32,14.27,15.07Z"/></svg>