<svg xmlns="http://www.w3.org/2000/svg" role="img" focusable="false" aria-hidden="true" viewBox="0 0 30 30"><defs><style>.cls-1{fill:;}.cls-2{fill:#fff;}</style></defs><path fill="#f7931a" d="M30,15.09A15,15,0,1,1,15.09,0,15,15,0,0,1,30,15.09Z"/><path fill="#fff" d="M20.91,11.37c-.18-2-1.92-2.7-4.11-2.91l0-2.79H15.12l0,2.7H13.74l0-2.73H12.06l0,2.79H8.61v1.8s1.26,0,1.23,0a.85.85,0,0,1,1,.75l0,3.18h0l0,4.47a.6.6,0,0,1-.63.57s-1.23,0-1.23,0l-.36,2H10.8c.42,0,.81,0,1.2,0l0,2.82h1.68l0-2.79c.48,0,.93,0,1.35,0l0,2.79h1.71l0-2.82c2.85-.18,4.86-.87,5.13-3.54a2.88,2.88,0,0,0-2.4-3.51,2.64,2.64,0,0,0,1.44-2.85Zm-2.4,6c0,2.1-3.63,1.86-4.77,1.83l0-3.72c1.14,0,4.74-.3,4.74,1.89Zm-.75-5.28c0,1.92-3,1.68-4,1.68V10.38C14.76,10.38,17.76,10.11,17.76,12.09Z"/></svg>
