<svg xmlns="http://www.w3.org/2000/svg" role="img" focusable="false" aria-hidden="true" viewBox="0 0 30 30">
	<path fill="#b1a68c" d="M30,15.09A15,15,0,1,1,15.09,0,15,15,0,0,1,30,15.09Z"/>
	<polygon fill="#fff" points="13.75 22.28 16.22 22.28 19.43 13.11 20.83 22.28 23.62 22.28 21.13 7.72 18.39 7.72 15 17.74 11.76 7.72 8.82 7.72 7.16 17.39 4.18 17.39 4.18 18.94 6.9 18.94 6.79 19.57 4.18 19.57 4.18 21.12 6.53 21.12 6.33 22.28 9.17 22.28 9.36 21.12 11.36 21.12 11.36 19.57 9.62 19.57 9.73 18.94 11.36 18.94 11.36 17.39 9.99 17.39 10.71 13.11 13.75 22.28"/></svg>