<svg xmlns="http://www.w3.org/2000/svg" role="img" focusable="false" aria-hidden="true" viewBox="0 0 30 30" fill="none">
<path d="M15 30C23.2843 30 30 23.2843 30 15C30 6.71573 23.2843 0 15 0C6.71573 0 0 6.71573 0 15C0 23.2843 6.71573 30 15 30Z" fill="#0645F7"/>
	<path fill="#fff" fill-rule="evenodd" clip-rule="evenodd" d="M23.6095 24.0282C23.4748 24.0289 23.343 23.9896 23.2307 23.9153C23.1184 23.841 23.0307 23.7351 22.9786 23.6109C22.9266 23.4867 22.9126 23.3498 22.9385 23.2177C22.9643 23.0855 23.0288 22.964 23.1238 22.8686C23.2187 22.7731 23.3399 22.708 23.4719 22.6815C23.6039 22.6549 23.7408 22.6682 23.8653 22.7195C23.9898 22.7709 24.0962 22.8581 24.1711 22.97C24.2459 23.0819 24.2859 23.2135 24.2859 23.3481C24.2859 23.5279 24.2148 23.7003 24.088 23.8277C23.9613 23.9552 23.7892 24.0272 23.6095 24.0282V24.0282ZM23.2515 16.7017C23.1157 16.6995 22.9835 16.6571 22.8716 16.5799C22.7598 16.5026 22.6735 16.3939 22.6234 16.2675C22.5734 16.1412 22.562 16.0028 22.5906 15.87C22.6192 15.7371 22.6865 15.6157 22.7841 15.5211C22.8817 15.4265 23.0051 15.363 23.1388 15.3386C23.2725 15.3141 23.4105 15.3299 23.5352 15.3838C23.6599 15.4378 23.7659 15.5275 23.8396 15.6417C23.9134 15.7558 23.9516 15.8893 23.9495 16.0252C23.9467 16.2056 23.873 16.3776 23.7445 16.5042C23.6159 16.6308 23.4427 16.7017 23.2623 16.7017H23.2515ZM23.2515 14.6437C23.1155 14.6436 22.9825 14.6033 22.8694 14.5276C22.7563 14.4519 22.6682 14.3444 22.6163 14.2186C22.5644 14.0928 22.551 13.9545 22.5778 13.8211C22.6046 13.6877 22.6704 13.5652 22.7669 13.4693C22.8634 13.3733 22.9862 13.3081 23.1197 13.282C23.2532 13.2559 23.3915 13.27 23.517 13.3226C23.6425 13.3752 23.7496 13.4638 23.8247 13.5773C23.8998 13.6908 23.9395 13.824 23.9387 13.96C23.9388 14.1401 23.8677 14.3129 23.7411 14.4409C23.6144 14.5689 23.4423 14.6418 23.2623 14.6437H23.2515ZM21.8736 13.4303V14.683H20.5028V13.1619C20.5029 12.9806 20.575 12.8068 20.7032 12.6787L22.321 11.0752C22.4244 10.9706 22.5575 10.9004 22.7022 10.8742C22.847 10.8479 22.9963 10.8669 23.1299 10.9285C23.2287 10.9753 23.3148 11.0453 23.3808 11.1325C23.4468 11.2197 23.4908 11.3216 23.5091 11.4294C23.5273 11.5373 23.5193 11.6479 23.4857 11.752C23.4521 11.8561 23.3939 11.9505 23.316 12.0273L21.8736 13.4303ZM23.1191 19.157C22.9855 19.2186 22.8362 19.2375 22.6915 19.2113C22.5468 19.185 22.4136 19.1148 22.3102 19.0102L20.6925 17.4068C20.5642 17.2786 20.4921 17.1048 20.492 16.9236V15.3738H21.8736V16.6265L23.3052 18.0582C23.3805 18.1343 23.4368 18.2271 23.4694 18.3291C23.5021 18.431 23.5102 18.5393 23.4931 18.645C23.476 18.7507 23.4342 18.8508 23.3711 18.9373C23.308 19.0238 23.2253 19.0941 23.1299 19.1426L23.1191 19.157ZM19.812 12.5033V17.4569L23.749 21.3939C23.8141 21.4574 23.8661 21.533 23.902 21.6166C23.9378 21.7001 23.9569 21.7899 23.9581 21.8808C23.9592 21.9717 23.9425 22.0619 23.9088 22.1464C23.875 22.2308 23.825 22.3077 23.7616 22.3728C23.6981 22.4379 23.6225 22.4899 23.5389 22.5258C23.4554 22.5616 23.3656 22.5807 23.2747 22.5818C23.1838 22.583 23.0936 22.5662 23.0092 22.5325C22.9247 22.4988 22.8478 22.4488 22.7827 22.3854L18.6309 18.23C18.5661 18.1665 18.5147 18.0908 18.4797 18.0072C18.4447 17.9236 18.4267 17.8338 18.4269 17.7432V12.217C18.4267 12.1264 18.4447 12.0366 18.4797 11.953C18.5147 11.8694 18.5661 11.7937 18.6309 11.7302L21.1649 9.1926C21.2281 9.12727 21.3036 9.07503 21.387 9.03886C21.4704 9.00269 21.5601 8.98331 21.651 8.98181C21.7419 8.98032 21.8322 8.99674 21.9168 9.03015C22.0013 9.06355 22.0785 9.11328 22.1438 9.1765C22.2091 9.23972 22.2614 9.31518 22.2975 9.39859C22.3337 9.482 22.3531 9.57171 22.3546 9.66261C22.3561 9.75351 22.3397 9.84381 22.3063 9.92837C22.2729 10.0129 22.2231 10.0901 22.1599 10.1554L19.812 12.5033ZM18.2193 11.2542C18.155 11.3185 18.0785 11.3694 17.9943 11.4038C17.9101 11.4383 17.8199 11.4555 17.7289 11.4546H12.217C12.126 11.4559 12.0357 11.4388 11.9514 11.4044C11.8672 11.37 11.7907 11.3189 11.7267 11.2542L9.19264 8.713C9.06164 8.58485 8.98692 8.40991 8.98491 8.22667C8.98289 8.04342 9.05375 7.86689 9.1819 7.73589C9.31005 7.60489 9.48499 7.53017 9.66823 7.52815C9.85148 7.52614 10.028 7.597 10.159 7.72515L12.5034 10.0731H17.4533L19.7798 7.73947C19.8837 7.63335 20.0182 7.56221 20.1644 7.53592C20.3106 7.50962 20.4614 7.52948 20.5958 7.59272C20.6937 7.64217 20.7784 7.71409 20.8431 7.80258C20.9078 7.89108 20.9507 7.99364 20.9681 8.10187C20.9856 8.21011 20.9772 8.32093 20.9436 8.42529C20.91 8.52964 20.8521 8.62456 20.7748 8.70226L18.2193 11.2542ZM17.4533 9.17829C17.3892 9.24312 17.3128 9.29455 17.2287 9.32958C17.1445 9.3646 17.0542 9.38252 16.963 9.3823H15.4311V8.00075H16.691L18.1047 6.58698C18.208 6.48103 18.3416 6.40968 18.4871 6.38276C18.6326 6.35584 18.7828 6.37467 18.9172 6.43666C19.015 6.48611 19.0998 6.55802 19.1645 6.64652C19.2292 6.73501 19.2721 6.83757 19.2895 6.94581C19.307 7.05404 19.2985 7.16487 19.2649 7.26922C19.2313 7.37358 19.1735 7.46849 19.0962 7.54619L17.4533 9.17829ZM15.9859 7.38871C15.85 7.38871 15.7171 7.34841 15.6041 7.2729C15.4911 7.19739 15.403 7.09006 15.351 6.96449C15.299 6.83892 15.2854 6.70075 15.3119 6.56745C15.3384 6.43415 15.4038 6.3117 15.4999 6.21559C15.5961 6.11949 15.7185 6.05404 15.8518 6.02752C15.9851 6.00101 16.1233 6.01461 16.2488 6.06663C16.3744 6.11864 16.4817 6.20672 16.5573 6.31973C16.6328 6.43274 16.6731 6.5656 16.6731 6.70151C16.6694 6.87883 16.5973 7.04786 16.4719 7.17327C16.3465 7.29867 16.1775 7.37074 16.0002 7.37439L15.9859 7.38871ZM13.1941 9.3823C13.103 9.38252 13.0126 9.3646 12.9285 9.32958C12.8443 9.29455 12.7679 9.24312 12.7038 9.17829L11.086 7.55693C10.955 7.42878 10.8803 7.25384 10.8783 7.0706C10.8763 6.88736 10.9471 6.71082 11.0753 6.57982C11.2034 6.44883 11.3784 6.3741 11.5616 6.37209C11.7448 6.37007 11.9214 6.44094 12.0524 6.56909L13.484 8.00075H14.7439V9.3823H13.1941ZM13.9458 7.37439C13.8098 7.37439 13.677 7.33409 13.564 7.25858C13.451 7.18307 13.3629 7.07575 13.3109 6.95018C13.2589 6.82461 13.2452 6.68644 13.2718 6.55313C13.2983 6.41983 13.3637 6.29738 13.4598 6.20128C13.5559 6.10517 13.6784 6.03972 13.8117 6.0132C13.945 5.98669 14.0832 6.0003 14.2087 6.05231C14.3343 6.10432 14.4416 6.1924 14.5171 6.30541C14.5926 6.41842 14.633 6.55128 14.633 6.6872C14.633 6.77744 14.6152 6.8668 14.5806 6.95018C14.5461 7.03355 14.4955 7.10931 14.4317 7.17312C14.3679 7.23693 14.2921 7.28755 14.2087 7.32208C14.1254 7.35662 14.036 7.37439 13.9458 7.37439V7.37439ZM11.5119 12.2277V17.7504C11.5124 17.8413 11.495 17.9314 11.4606 18.0155C11.4262 18.0996 11.3755 18.1762 11.3115 18.2407L8.77746 20.7783C8.67348 20.8844 8.53907 20.9556 8.39285 20.9819C8.24662 21.0082 8.09584 20.9883 7.96141 20.9251C7.86344 20.8751 7.77875 20.8025 7.7143 20.7134C7.64986 20.6243 7.6075 20.5212 7.59072 20.4125C7.57395 20.3038 7.58323 20.1926 7.61781 20.0882C7.65239 19.9838 7.71127 19.8891 7.78961 19.8119L10.1304 17.4569V12.5141L7.78961 10.1733C7.65814 10.0451 7.58296 9.87002 7.58061 9.68644C7.57945 9.59554 7.5962 9.5053 7.62991 9.42087C7.66362 9.33645 7.71363 9.25949 7.77709 9.19439C7.84054 9.1293 7.91619 9.07733 7.99973 9.04147C8.08326 9.00561 8.17304 8.98656 8.26394 8.98539C8.44752 8.98304 8.62451 9.05372 8.75598 9.18187L11.3115 11.7302C11.3767 11.7954 11.4281 11.873 11.4625 11.9585C11.497 12.044 11.5138 12.1356 11.5119 12.2277V12.2277ZM9.22127 12.6644C9.29025 12.7276 9.34529 12.8045 9.38288 12.8901C9.42047 12.9758 9.43979 13.0683 9.4396 13.1619V14.6973H8.05805V13.4446L6.64428 12.0309C6.57894 11.9681 6.52666 11.8929 6.49046 11.8098C6.45427 11.7267 6.43488 11.6373 6.43339 11.5467C6.43191 11.456 6.44838 11.366 6.48184 11.2818C6.5153 11.1975 6.56509 11.1207 6.62836 11.0558C6.69162 10.9909 6.7671 10.9391 6.85045 10.9035C6.9338 10.8679 7.02337 10.8491 7.11401 10.8483C7.20465 10.8474 7.29456 10.8645 7.37857 10.8985C7.46258 10.9326 7.53902 10.9829 7.6035 11.0466L9.22127 12.6644ZM6.66934 13.2728C6.80596 13.2693 6.94054 13.3065 7.05588 13.3799C7.17122 13.4532 7.26207 13.5592 7.31684 13.6844C7.37161 13.8096 7.3878 13.9483 7.36334 14.0828C7.33888 14.2173 7.27488 14.3414 7.17952 14.4393C7.08417 14.5372 6.96179 14.6044 6.82802 14.6324C6.69425 14.6604 6.55517 14.6479 6.42856 14.5965C6.30194 14.545 6.19354 14.457 6.11721 14.3436C6.04088 14.2303 6.00008 14.0967 6.00004 13.96C6.00003 13.7784 6.07194 13.6041 6.20005 13.4754C6.32815 13.3466 6.50202 13.2738 6.68366 13.2728H6.66934ZM6.66934 15.3308C6.80565 15.3273 6.93994 15.3644 7.05511 15.4374C7.17028 15.5104 7.26113 15.616 7.31609 15.7408C7.37106 15.8656 7.38765 16.0039 7.36377 16.1382C7.33988 16.2724 7.27659 16.3966 7.18196 16.4947C7.08733 16.5929 6.96562 16.6607 6.83234 16.6895C6.69906 16.7183 6.56022 16.7068 6.43349 16.6565C6.30676 16.6061 6.19788 16.5192 6.12069 16.4068C6.0435 16.2944 6.0015 16.1616 6.00004 16.0252C5.99909 15.9347 6.01605 15.8448 6.04994 15.7609C6.08383 15.6769 6.13398 15.6004 6.1975 15.5359C6.26103 15.4714 6.33668 15.4201 6.42011 15.3849C6.50354 15.3497 6.59311 15.3313 6.68366 15.3308H6.66934ZM8.04373 16.6265V15.3738H9.4396V16.9093C9.43783 17.0004 9.41757 17.0902 9.38004 17.1733C9.34251 17.2563 9.28849 17.3309 9.22127 17.3924L7.61781 18.9959C7.5144 19.1005 7.38127 19.1707 7.23654 19.197C7.0918 19.2232 6.9425 19.2043 6.80893 19.1426C6.71036 19.0954 6.62461 19.0252 6.55896 18.9378C6.49331 18.8505 6.44968 18.7485 6.43177 18.6407C6.41386 18.5329 6.4222 18.4224 6.45608 18.3185C6.48995 18.2146 6.54837 18.1204 6.62639 18.0438L8.04373 16.6265ZM11.7267 18.5736C11.7904 18.5092 11.8662 18.458 11.9497 18.423C12.0332 18.3879 12.1229 18.3698 12.2134 18.3695H17.7253C17.8165 18.3693 17.9068 18.3872 17.991 18.4223C18.0752 18.4573 18.1516 18.5087 18.2157 18.5736L22.3353 22.7003C22.4663 22.8285 22.541 23.0034 22.543 23.1867C22.545 23.3699 22.4742 23.5464 22.346 23.6774C22.2179 23.8084 22.0429 23.8832 21.8597 23.8852C21.6764 23.8872 21.4999 23.8163 21.3689 23.6882L17.4318 19.7511H12.4962L10.1662 22.0811C10.0629 22.1871 9.92931 22.2584 9.78381 22.2853C9.63832 22.3123 9.48806 22.2934 9.3537 22.2315C9.25586 22.182 9.17111 22.1101 9.1064 22.0216C9.04168 21.9331 8.99885 21.8305 8.98139 21.7223C8.96393 21.6141 8.97235 21.5032 9.00596 21.3989C9.03957 21.2945 9.09741 21.1996 9.17475 21.1219L11.7267 18.5736ZM12.7074 20.6459C12.8392 20.5188 13.0146 20.4471 13.1977 20.4455H14.7439V21.827H13.4805L12.0846 23.2408C12.0214 23.3059 11.946 23.3579 11.8626 23.3938C11.7793 23.4298 11.6897 23.449 11.599 23.4503C11.5083 23.4516 11.4182 23.4351 11.3338 23.4016C11.2495 23.3681 11.1726 23.3183 11.1075 23.2551C11.0424 23.1919 10.9904 23.1165 10.9544 23.0331C10.9185 22.9498 10.8993 22.8602 10.898 22.7695C10.8966 22.6788 10.9132 22.5887 10.9467 22.5043C10.9802 22.42 11.03 22.3431 11.0932 22.278L12.7074 20.6459ZM13.9493 22.6001C14.0854 22.5994 14.2186 22.6391 14.3321 22.7142C14.4456 22.7893 14.5342 22.8963 14.5868 23.0218C14.6393 23.1473 14.6534 23.2856 14.6273 23.4192C14.6012 23.5527 14.5361 23.6755 14.4401 23.7719C14.3441 23.8684 14.2217 23.9342 14.0883 23.961C13.9549 23.9878 13.8165 23.9744 13.6908 23.9225C13.565 23.8706 13.4575 23.7825 13.3818 23.6695C13.3061 23.5564 13.2657 23.4234 13.2657 23.2873C13.2657 23.1063 13.3371 22.9326 13.4645 22.8039C13.5918 22.6752 13.7647 22.602 13.9458 22.6001H13.9493ZM16.9809 20.4526C17.1639 20.4543 17.3394 20.526 17.4712 20.653L19.089 22.2744C19.2205 22.4026 19.2956 22.5777 19.298 22.7613C19.3003 22.9448 19.2297 23.1218 19.1015 23.2533C18.9734 23.3848 18.7982 23.46 18.6147 23.4623C18.4311 23.4647 18.2541 23.394 18.1226 23.2658L16.691 21.8342H15.4311V20.4455H16.9773L16.9809 20.4526ZM16.0038 22.6001C16.1392 22.6022 16.271 22.6443 16.3826 22.7211C16.4942 22.7979 16.5806 22.9059 16.6309 23.0317C16.6813 23.1574 16.6934 23.2952 16.6657 23.4278C16.638 23.5604 16.5717 23.6819 16.4752 23.7769C16.3786 23.8719 16.2562 23.9363 16.1232 23.962C15.9902 23.9876 15.8526 23.9734 15.7276 23.9211C15.6027 23.8688 15.496 23.7807 15.4209 23.668C15.3459 23.5552 15.3058 23.4228 15.3058 23.2873C15.3058 23.1965 15.3238 23.1065 15.3588 23.0227C15.3938 22.9388 15.4451 22.8627 15.5096 22.7988C15.5742 22.7349 15.6508 22.6845 15.735 22.6503C15.8192 22.6162 15.9093 22.5992 16.0002 22.6001H16.0038Z"/>
	<path fill="#fff" fill-rule="evenodd" clip-rule="evenodd" d="M21.8843 13.4303V14.683H20.5028V13.1619C20.5029 12.9806 20.575 12.8068 20.7032 12.6787L22.321 11.0752C22.4244 10.9706 22.5575 10.9004 22.7022 10.8742C22.847 10.8479 22.9963 10.8669 23.1299 10.9285C23.2287 10.9753 23.3148 11.0453 23.3808 11.1325C23.4468 11.2197 23.4908 11.3216 23.5091 11.4294C23.5273 11.5373 23.5193 11.6479 23.4857 11.752C23.4521 11.8561 23.3939 11.9505 23.316 12.0273L21.8843 13.4303ZM23.1299 19.157C22.9963 19.2186 22.847 19.2375 22.7022 19.2113C22.5575 19.185 22.4244 19.1148 22.321 19.0102L20.7032 17.4068C20.575 17.2786 20.5029 17.1048 20.5028 16.9236V15.3738H21.8843V16.6265L23.316 18.0582C23.3909 18.135 23.4465 18.2285 23.4784 18.331C23.5102 18.4335 23.5174 18.542 23.4992 18.6478C23.481 18.7536 23.4381 18.8536 23.3739 18.9396C23.3097 19.0256 23.2261 19.0952 23.1299 19.1426V19.157ZM18.2193 11.2828C18.155 11.3472 18.0785 11.3981 17.9943 11.4325C17.9101 11.4669 17.8199 11.4842 17.7289 11.4833H12.217C12.1239 11.4809 12.0323 11.4593 11.9479 11.4199C11.8636 11.3805 11.7882 11.3241 11.7267 11.2542L9.19264 8.713C9.06164 8.58485 8.98692 8.40991 8.98491 8.22667C8.98289 8.04342 9.05375 7.86689 9.1819 7.73589C9.31005 7.60489 9.48499 7.53017 9.66823 7.52815C9.85148 7.52614 10.028 7.597 10.159 7.72515L12.5034 10.0731H17.4533L19.7798 7.73947C19.8837 7.63335 20.0182 7.56221 20.1644 7.53592C20.3106 7.50962 20.4614 7.52948 20.5958 7.59272C20.6937 7.64217 20.7784 7.71409 20.8431 7.80258C20.9078 7.89108 20.9507 7.99364 20.9681 8.10187C20.9856 8.21011 20.9772 8.32093 20.9436 8.42529C20.9099 8.52964 20.8521 8.62456 20.7748 8.70226L18.2193 11.2828ZM17.4533 9.17829C17.3892 9.24312 17.3128 9.29455 17.2287 9.32958C17.1445 9.3646 17.0542 9.38252 16.963 9.3823H15.4311V8.00075H16.691L18.1047 6.58698C18.208 6.48103 18.3416 6.40968 18.4871 6.38276C18.6326 6.35584 18.7828 6.37467 18.9172 6.43666C19.015 6.48611 19.0998 6.55802 19.1645 6.64652C19.2292 6.73501 19.272 6.83757 19.2895 6.94581C19.307 7.05404 19.2985 7.16487 19.2649 7.26922C19.2313 7.37358 19.1735 7.46849 19.0961 7.54619L17.4533 9.17829ZM15.9859 7.38871C15.85 7.38871 15.7171 7.34841 15.6041 7.2729C15.4911 7.19739 15.403 7.09006 15.351 6.96449C15.299 6.83892 15.2854 6.70075 15.3119 6.56745C15.3384 6.43415 15.4038 6.3117 15.4999 6.21559C15.5961 6.11949 15.7185 6.05404 15.8518 6.02752C15.9851 6.00101 16.1233 6.01461 16.2488 6.06663C16.3744 6.11864 16.4817 6.20672 16.5573 6.31973C16.6328 6.43274 16.6731 6.5656 16.6731 6.70151C16.6694 6.87883 16.5973 7.04786 16.4719 7.17327C16.3465 7.29867 16.1775 7.37074 16.0002 7.37439L15.9859 7.38871ZM13.1941 9.3823C13.103 9.38252 13.0126 9.3646 12.9285 9.32958C12.8443 9.29455 12.7679 9.24312 12.7038 9.17829L11.086 7.55693C10.955 7.42878 10.8803 7.25384 10.8783 7.0706C10.8763 6.88736 10.9471 6.71082 11.0753 6.57982C11.2034 6.44883 11.3784 6.3741 11.5616 6.37209C11.7448 6.37007 11.9214 6.44094 12.0524 6.56909L13.484 8.00075H14.7439V9.3823H13.1941ZM13.9458 7.37439C13.8098 7.37439 13.677 7.33409 13.564 7.25858C13.451 7.18307 13.3629 7.07575 13.3109 6.95018C13.2589 6.82461 13.2452 6.68644 13.2718 6.55313C13.2983 6.41983 13.3637 6.29738 13.4598 6.20128C13.5559 6.10517 13.6784 6.03972 13.8117 6.0132C13.945 5.98669 14.0832 6.0003 14.2087 6.05231C14.3343 6.10432 14.4416 6.1924 14.5171 6.30541C14.5926 6.41842 14.6329 6.55128 14.6329 6.6872C14.6329 6.77744 14.6152 6.8668 14.5806 6.95018C14.5461 7.03355 14.4955 7.10931 14.4317 7.17312C14.3679 7.23693 14.2921 7.28755 14.2087 7.32208C14.1254 7.35662 14.036 7.37439 13.9458 7.37439V7.37439ZM11.5119 12.2277V17.7504C11.5124 17.8413 11.495 17.9314 11.4606 18.0155C11.4262 18.0996 11.3755 18.1762 11.3115 18.2407L8.77746 20.7783C8.67348 20.8844 8.53907 20.9556 8.39284 20.9819C8.24662 21.0082 8.09584 20.9883 7.96141 20.9251C7.86344 20.8751 7.77875 20.8025 7.7143 20.7134C7.64985 20.6243 7.6075 20.5212 7.59072 20.4125C7.57395 20.3038 7.58323 20.1926 7.61781 20.0882C7.65239 19.9838 7.71127 19.8891 7.78961 19.8119L10.1304 17.4569V12.5141L7.78961 10.1733C7.65814 10.0451 7.58296 9.87002 7.58061 9.68644C7.57945 9.59554 7.5962 9.5053 7.62991 9.42087C7.66362 9.33645 7.71363 9.25949 7.77709 9.19439C7.84054 9.1293 7.91619 9.07733 7.99973 9.04147C8.08326 9.00561 8.17304 8.98656 8.26394 8.98539C8.44752 8.98304 8.62451 9.05372 8.75598 9.18187L11.3115 11.7302C11.3767 11.7954 11.4281 11.873 11.4625 11.9585C11.497 12.044 11.5138 12.1356 11.5119 12.2277V12.2277ZM9.22127 12.6644C9.29025 12.7276 9.34529 12.8045 9.38288 12.8901C9.42047 12.9758 9.43979 13.0683 9.4396 13.1619V14.6973H8.05805V13.4446L6.64428 12.0309C6.57894 11.9681 6.52666 11.8929 6.49046 11.8098C6.45427 11.7267 6.43488 11.6373 6.43339 11.5467C6.43191 11.456 6.44838 11.366 6.48184 11.2818C6.5153 11.1975 6.56509 11.1207 6.62835 11.0558C6.69162 10.9909 6.7671 10.9391 6.85045 10.9035C6.9338 10.8679 7.02337 10.8491 7.11401 10.8483C7.20465 10.8474 7.29456 10.8645 7.37857 10.8985C7.46258 10.9326 7.53902 10.9829 7.6035 11.0466L9.22127 12.6644ZM6.66934 13.2728C6.80596 13.2693 6.94054 13.3065 7.05588 13.3799C7.17121 13.4532 7.26207 13.5592 7.31684 13.6844C7.37161 13.8096 7.3878 13.9483 7.36334 14.0828C7.33888 14.2173 7.27488 14.3414 7.17952 14.4393C7.08417 14.5372 6.96179 14.6044 6.82802 14.6324C6.69425 14.6604 6.55517 14.6479 6.42856 14.5965C6.30194 14.545 6.19354 14.457 6.11721 14.3436C6.04088 14.2303 6.00008 14.0967 6.00004 13.96C6.00003 13.7784 6.07194 13.6041 6.20005 13.4754C6.32815 13.3466 6.50202 13.2738 6.68366 13.2728H6.66934ZM6.66934 15.3308C6.80565 15.3273 6.93994 15.3644 7.05511 15.4374C7.17028 15.5104 7.26113 15.616 7.31609 15.7408C7.37106 15.8656 7.38765 16.0039 7.36377 16.1382C7.33988 16.2724 7.27659 16.3966 7.18196 16.4947C7.08733 16.5929 6.96562 16.6607 6.83234 16.6895C6.69906 16.7183 6.56022 16.7068 6.43349 16.6565C6.30676 16.6061 6.19788 16.5192 6.12069 16.4068C6.0435 16.2944 6.0015 16.1616 6.00004 16.0252C5.99909 15.9347 6.01605 15.8448 6.04994 15.7609C6.08383 15.6769 6.13398 15.6004 6.1975 15.5359C6.26103 15.4714 6.33668 15.4201 6.42011 15.3849C6.50354 15.3497 6.59311 15.3313 6.68366 15.3308H6.66934ZM8.04373 16.6265V15.3738H9.4396V16.9093C9.43783 17.0004 9.41757 17.0902 9.38004 17.1733C9.34251 17.2563 9.28849 17.3309 9.22127 17.3924L7.61781 18.9959C7.5144 19.1005 7.38127 19.1707 7.23654 19.197C7.0918 19.2232 6.9425 19.2043 6.80893 19.1426C6.71036 19.0954 6.62461 19.0252 6.55896 18.9378C6.49331 18.8505 6.44968 18.7485 6.43177 18.6407C6.41386 18.5329 6.4222 18.4224 6.45608 18.3185C6.48995 18.2146 6.54837 18.1204 6.62639 18.0438L8.04373 16.6265ZM11.7267 18.5736C11.7904 18.5092 11.8662 18.458 11.9497 18.423C12.0332 18.3879 12.1229 18.3698 12.2134 18.3695H17.7253C17.8165 18.3693 17.9068 18.3872 17.991 18.4223C18.0752 18.4573 18.1516 18.5087 18.2157 18.5736L22.3353 22.7003C22.4663 22.8285 22.541 23.0034 22.543 23.1867C22.545 23.3699 22.4742 23.5464 22.346 23.6774C22.2179 23.8084 22.0429 23.8832 21.8597 23.8852C21.6764 23.8872 21.4999 23.8163 21.3689 23.6882L17.4318 19.7511H12.4962L10.1662 22.0811C10.0629 22.1871 9.92931 22.2584 9.78381 22.2853C9.63832 22.3123 9.48806 22.2934 9.3537 22.2315C9.25585 22.182 9.17111 22.1101 9.1064 22.0216C9.04168 21.9331 8.99885 21.8305 8.98139 21.7223C8.96393 21.6141 8.97235 21.5032 9.00596 21.3989C9.03957 21.2945 9.09741 21.1996 9.17474 21.1219L11.7267 18.5736ZM12.7074 20.6459C12.8392 20.5188 13.0146 20.4471 13.1977 20.4455H14.7439V21.827H13.4805L12.0846 23.2408C12.0214 23.3059 11.946 23.3579 11.8626 23.3938C11.7793 23.4298 11.6897 23.449 11.599 23.4503C11.5083 23.4516 11.4182 23.4351 11.3338 23.4016C11.2495 23.3681 11.1726 23.3183 11.1075 23.2551C11.0424 23.1919 10.9904 23.1165 10.9544 23.0331C10.9185 22.9498 10.8993 22.8602 10.898 22.7695C10.8966 22.6788 10.9132 22.5887 10.9467 22.5043C10.9802 22.42 11.03 22.3431 11.0932 22.278L12.7074 20.6459ZM13.9493 22.6001C14.0854 22.5994 14.2186 22.6391 14.3321 22.7142C14.4456 22.7893 14.5342 22.8963 14.5868 23.0218C14.6393 23.1473 14.6534 23.2856 14.6273 23.4192C14.6012 23.5527 14.5361 23.6755 14.4401 23.7719C14.3441 23.8684 14.2217 23.9342 14.0883 23.961C13.9549 23.9878 13.8165 23.9744 13.6908 23.9225C13.565 23.8706 13.4575 23.7825 13.3818 23.6695C13.3061 23.5564 13.2657 23.4234 13.2657 23.2873C13.2657 23.1063 13.3371 22.9326 13.4645 22.8039C13.5918 22.6752 13.7647 22.602 13.9458 22.6001H13.9493ZM16.9809 20.4526C17.1639 20.4543 17.3394 20.526 17.4712 20.653L19.089 22.2744C19.2205 22.4026 19.2956 22.5777 19.298 22.7613C19.3003 22.9448 19.2297 23.1218 19.1015 23.2533C18.9734 23.3848 18.7982 23.46 18.6147 23.4623C18.4311 23.4647 18.2541 23.394 18.1226 23.2658L16.691 21.8342H15.4311V20.4455H16.9773L16.9809 20.4526ZM16.0038 22.6001C16.1392 22.6022 16.271 22.6443 16.3826 22.7211C16.4942 22.7979 16.5806 22.9059 16.6309 23.0317C16.6813 23.1574 16.6934 23.2952 16.6657 23.4278C16.638 23.5604 16.5717 23.6819 16.4752 23.7769C16.3786 23.8719 16.2562 23.9363 16.1232 23.962C15.9902 23.9876 15.8526 23.9734 15.7276 23.9211C15.6027 23.8688 15.496 23.7807 15.4209 23.668C15.3459 23.5552 15.3058 23.4228 15.3058 23.2873C15.3058 23.1965 15.3238 23.1065 15.3588 23.0227C15.3938 22.9388 15.4451 22.8627 15.5096 22.7988C15.5742 22.7349 15.6508 22.6845 15.735 22.6503C15.8192 22.6162 15.9093 22.5992 16.0002 22.6001H16.0038Z"/>
</svg>
