<svg viewBox="0 0 30 30" fill="none" xmlns="http://www.w3.org/2000/svg">
<path d="M15 29.5C23.0081 29.5 29.5 23.0081 29.5 15C29.5 6.99187 23.0081 0.5 15 0.5C6.99187 0.5 0.5 6.99187 0.5 15C0.5 23.0081 6.99187 29.5 15 29.5Z" fill="white"/>
<path d="M15 1C22.7 1 29 7.3 29 15C29 22.7 22.7 29 15 29C7.3 29 1 22.7 1 15C1 7.3 7.3 1 15 1ZM15 0C6.7 0 0 6.7 0 15C0 23.3 6.7 30 15 30C23.3 30 30 23.3 30 15C30 6.7 23.3 0 15 0Z" fill="#E2E2E2"/>
<path d="M10.5401 15.2879C10.5206 15.6429 10.6426 15.9911 10.8793 16.2564C11.116 16.5217 11.4482 16.6824 11.8031 16.7033C11.8292 16.7033 11.8562 16.7033 11.8807 16.7033C12.1428 16.7032 12.3992 16.6262 12.6181 16.4819C12.837 16.3376 13.0088 16.1323 13.1123 15.8915C13.2159 15.6506 13.2465 15.3847 13.2006 15.1266C13.1547 14.8684 13.0341 14.6295 12.8538 14.4391C12.6735 14.2488 12.4414 14.1154 12.1862 14.0555C11.931 13.9956 11.6638 14.0118 11.4177 14.1021C11.1715 14.1924 10.9572 14.3528 10.8013 14.5635C10.6453 14.7743 10.5545 15.0261 10.5401 15.2879V15.2879Z" fill="#0033AD"/>
<path d="M5.53991 14.9425C5.45433 14.9377 5.36926 14.9584 5.29544 15.0019C5.22162 15.0455 5.16236 15.1099 5.12517 15.1872C5.08797 15.2644 5.07451 15.3509 5.08647 15.4357C5.09844 15.5206 5.1353 15.6 5.19239 15.664C5.24948 15.7279 5.32424 15.7734 5.40723 15.7949C5.49021 15.8163 5.57769 15.8127 5.6586 15.7844C5.73951 15.7561 5.81022 15.7045 5.86179 15.6361C5.91337 15.5676 5.94349 15.4854 5.94835 15.3998C5.95165 15.343 5.9437 15.286 5.92494 15.2322C5.90619 15.1784 5.877 15.1289 5.83906 15.0864C5.80111 15.0439 5.75515 15.0093 5.70382 14.9846C5.65248 14.9599 5.59678 14.9456 5.53991 14.9425Z" fill="#0033AD"/>
<path d="M10.4551 7.50286C10.5314 7.46403 10.5944 7.40347 10.6363 7.32884C10.6782 7.25421 10.6971 7.16885 10.6906 7.08351C10.684 6.99816 10.6524 6.91667 10.5996 6.8493C10.5468 6.78193 10.4752 6.7317 10.3939 6.70495C10.3126 6.67819 10.2252 6.67611 10.1427 6.69896C10.0602 6.72181 9.98636 6.76857 9.93041 6.83335C9.87447 6.89812 9.83895 6.97801 9.82835 7.06294C9.81775 7.14788 9.83253 7.23405 9.87083 7.31059C9.89652 7.36162 9.93203 7.40708 9.97531 7.44437C10.0186 7.48166 10.0688 7.51005 10.1231 7.52791C10.1773 7.54577 10.2346 7.55275 10.2916 7.54845C10.3485 7.54415 10.4041 7.52866 10.4551 7.50286Z" fill="#0033AD"/>
<path d="M11.8159 9.8755C11.9341 9.81588 12.0321 9.72252 12.0973 9.60724C12.1625 9.49196 12.1921 9.35993 12.1823 9.22784C12.1725 9.09576 12.1237 8.96954 12.0422 8.86516C11.9607 8.76077 11.85 8.68291 11.7242 8.6414C11.5985 8.5999 11.4632 8.59661 11.3356 8.63197C11.2079 8.66733 11.0936 8.73974 11.0071 8.84005C10.9206 8.94036 10.8658 9.06406 10.8496 9.19552C10.8334 9.32698 10.8566 9.46029 10.9161 9.57859C10.9961 9.73722 11.1358 9.85759 11.3045 9.91326C11.4733 9.96893 11.6572 9.95535 11.8159 9.8755V9.8755Z" fill="#0033AD"/>
<path d="M7.23744 11.5071C7.32874 11.5669 7.43574 11.5983 7.5449 11.5973C7.65405 11.5963 7.76046 11.563 7.85066 11.5015C7.94087 11.44 8.01081 11.3532 8.05165 11.252C8.09249 11.1507 8.10239 11.0397 8.08009 10.9328C8.0578 10.8259 8.00432 10.7281 7.92641 10.6516C7.8485 10.5752 7.74966 10.5235 7.6424 10.5033C7.53514 10.483 7.42428 10.495 7.32383 10.5377C7.22338 10.5804 7.13787 10.652 7.07809 10.7433C6.99798 10.8658 6.96976 11.015 6.99964 11.1582C7.02952 11.3014 7.11505 11.4269 7.23744 11.5071V11.5071Z" fill="#0033AD"/>
<path d="M8.05274 14.7035C7.92036 14.6959 7.78871 14.7278 7.67444 14.7951C7.56018 14.8623 7.46843 14.962 7.41081 15.0814C7.35318 15.2008 7.33227 15.3346 7.35071 15.4659C7.36915 15.5972 7.42613 15.7201 7.51442 15.819C7.60271 15.918 7.71836 15.9885 7.84674 16.0217C7.97511 16.0548 8.11044 16.0492 8.23561 16.0055C8.36079 15.9617 8.47017 15.8818 8.54994 15.7759C8.62971 15.67 8.67627 15.5428 8.68373 15.4104C8.69374 15.233 8.63289 15.0589 8.51457 14.9263C8.39625 14.7938 8.23013 14.7136 8.05274 14.7035V14.7035Z" fill="#0033AD"/>
<path d="M7.31285 19.2034C7.21536 19.2525 7.13462 19.3294 7.08084 19.4244C7.02706 19.5194 7.00267 19.6282 7.01074 19.7371C7.01881 19.8459 7.05899 19.95 7.12619 20.036C7.19339 20.122 7.28459 20.1862 7.38826 20.2204C7.49193 20.2545 7.60341 20.2572 7.7086 20.228C7.81379 20.1989 7.90797 20.1391 7.97921 20.0564C8.05045 19.9737 8.09557 19.8717 8.10884 19.7634C8.12212 19.655 8.10296 19.5452 8.0538 19.4477C8.02128 19.3829 7.97629 19.3252 7.92142 19.2779C7.86655 19.2305 7.80288 19.1944 7.73404 19.1717C7.66521 19.1491 7.59257 19.1402 7.52029 19.1456C7.44802 19.151 7.37753 19.1707 7.31285 19.2034V19.2034Z" fill="#0033AD"/>
<path d="M9.91545 13.3167C10.0458 13.4022 10.1986 13.4471 10.3545 13.4458C10.5103 13.4444 10.6623 13.3969 10.7912 13.3092C10.9201 13.2215 11.02 13.0975 11.0785 12.953C11.1369 12.8085 11.1511 12.6499 11.1194 12.4972C11.0877 12.3446 11.0114 12.2048 10.9003 12.0955C10.7891 11.9862 10.6481 11.9124 10.4949 11.8833C10.3418 11.8541 10.1834 11.8711 10.0399 11.932C9.8964 11.9928 9.77416 12.0949 9.68865 12.2252C9.63179 12.3118 9.59256 12.4087 9.57318 12.5104C9.55381 12.6121 9.55468 12.7166 9.57574 12.818C9.59681 12.9194 9.63765 13.0156 9.69594 13.1012C9.75423 13.1868 9.82882 13.26 9.91545 13.3167Z" fill="#0033AD"/>
<path d="M18.1731 9.82231C18.284 9.89506 18.4139 9.9333 18.5465 9.93219C18.679 9.93109 18.8083 9.89068 18.9179 9.8161C19.0276 9.74152 19.1126 9.6361 19.1623 9.51318C19.212 9.39026 19.2241 9.25536 19.1972 9.12555C19.1702 8.99574 19.1053 8.87684 19.0108 8.78389C18.9162 8.69095 18.7962 8.62813 18.666 8.60339C18.5357 8.57865 18.401 8.59309 18.279 8.64489C18.1569 8.69669 18.053 8.78353 17.9803 8.89441C17.932 8.96798 17.8986 9.05036 17.8822 9.13682C17.8657 9.22329 17.8665 9.31215 17.8844 9.39832C17.9023 9.4845 17.937 9.56631 17.9865 9.63906C18.0361 9.71181 18.0995 9.77408 18.1731 9.82231Z" fill="#0033AD"/>
<path d="M19.5477 7.45713C19.6194 7.50405 19.7034 7.52867 19.7891 7.52788C19.8747 7.52708 19.9583 7.50091 20.0291 7.45267C20.0999 7.40442 20.1548 7.33627 20.1869 7.25683C20.219 7.17738 20.2268 7.0902 20.2094 7.00631C20.192 6.92242 20.1501 6.84558 20.089 6.78549C20.0279 6.72541 19.9504 6.68478 19.8662 6.66874C19.782 6.65269 19.695 6.66196 19.6161 6.69536C19.5372 6.72877 19.4699 6.78481 19.4229 6.85641C19.3916 6.90403 19.37 6.95736 19.3593 7.01334C19.3486 7.06932 19.3491 7.12686 19.3607 7.18265C19.3723 7.23845 19.3948 7.29142 19.4269 7.33851C19.4589 7.38561 19.5 7.42592 19.5477 7.45713V7.45713Z" fill="#0033AD"/>
<path d="M18.2783 14.0083C18.1024 13.9983 17.9263 14.023 17.7601 14.0811C17.5938 14.1391 17.4405 14.2294 17.3091 14.3466C17.1777 14.4639 17.0707 14.6059 16.9941 14.7645C16.9176 14.9231 16.8731 15.0953 16.863 15.2711C16.853 15.447 16.8778 15.6231 16.9358 15.7893C16.9938 15.9556 17.0841 16.1088 17.2013 16.2403C17.3186 16.3717 17.4606 16.4787 17.6192 16.5553C17.7778 16.6318 17.95 16.6763 18.1258 16.6863C18.1519 16.6863 18.1789 16.6863 18.2028 16.6863C18.552 16.6863 18.8874 16.5502 19.1377 16.3068C19.388 16.0634 19.5336 15.732 19.5434 15.3829C19.5532 15.0339 19.4266 14.6948 19.1903 14.4378C18.9541 14.1807 18.6269 14.0259 18.2783 14.0062V14.0083Z" fill="#0033AD"/>
<path d="M12.2567 13.2238C12.3681 13.4459 12.5393 13.6325 12.751 13.7625C12.9627 13.8926 13.2065 13.961 13.455 13.9599C13.6839 13.9599 13.9091 13.9012 14.109 13.7895C14.3088 13.6778 14.4768 13.5168 14.5968 13.3218C14.7168 13.1268 14.7849 12.9043 14.7946 12.6755C14.8043 12.4468 14.7553 12.2193 14.6522 12.0149C14.4921 11.6972 14.2123 11.4562 13.8745 11.3448C13.5367 11.2334 13.1685 11.2607 12.8508 11.4208C12.5331 11.5809 12.2921 11.8606 12.1807 12.1984C12.0693 12.5363 12.0966 12.9045 12.2567 13.2222V13.2238Z" fill="#0033AD"/>
<path d="M22.7691 11.5055C22.8662 11.4561 22.9465 11.3789 22.9999 11.2839C23.0533 11.1888 23.0773 11.0801 23.069 10.9714C23.0606 10.8627 23.0202 10.759 22.953 10.6732C22.8857 10.5874 22.7946 10.5235 22.691 10.4894C22.5874 10.4554 22.4761 10.4528 22.3711 10.482C22.266 10.5111 22.172 10.5708 22.1008 10.6533C22.0296 10.7359 21.9845 10.8377 21.9711 10.9458C21.9577 11.054 21.9766 11.1638 22.0255 11.2612C22.0581 11.3262 22.1033 11.384 22.1584 11.4315C22.2135 11.479 22.2774 11.5151 22.3465 11.5378C22.4156 11.5605 22.4885 11.5693 22.561 11.5638C22.6335 11.5582 22.7042 11.5384 22.7691 11.5055V11.5055Z" fill="#0033AD"/>
<path d="M19.3698 11.9326C19.2306 12.0028 19.1154 12.1127 19.0387 12.2483C18.9619 12.384 18.9271 12.5394 18.9387 12.6948C18.9503 12.8502 19.0076 12.9988 19.1036 13.1216C19.1995 13.2444 19.3297 13.336 19.4777 13.3849C19.6258 13.4337 19.7849 13.4376 19.9351 13.396C20.0853 13.3544 20.2198 13.2692 20.3216 13.1512C20.4234 13.0331 20.4879 12.8876 20.507 12.7329C20.5261 12.5782 20.4989 12.4213 20.4289 12.2821C20.3346 12.0954 20.1702 11.9538 19.9716 11.8883C19.773 11.8227 19.5566 11.8387 19.3698 11.9326V11.9326Z" fill="#0033AD"/>
<path d="M14.9905 7.25483C15.0994 7.26092 15.2076 7.23463 15.3016 7.17927C15.3955 7.1239 15.4709 7.04195 15.5183 6.94375C15.5657 6.84554 15.583 6.7355 15.5679 6.6275C15.5528 6.51951 15.5061 6.4184 15.4336 6.33694C15.3611 6.25549 15.2661 6.19734 15.1606 6.16983C15.0551 6.14232 14.9438 6.14669 14.8407 6.18238C14.7377 6.21807 14.6475 6.28349 14.5816 6.37038C14.5158 6.45726 14.4771 6.56172 14.4705 6.67057C14.4661 6.74313 14.476 6.81585 14.4998 6.88455C14.5235 6.95325 14.5606 7.01657 14.609 7.07087C14.6573 7.12517 14.7159 7.16938 14.7814 7.20095C14.8468 7.23252 14.9179 7.25083 14.9905 7.25483V7.25483Z" fill="#0033AD"/>
<path d="M14.9841 10.7268C15.1397 10.7354 15.2944 10.6977 15.4285 10.6184C15.5627 10.5391 15.6703 10.4218 15.7379 10.2814C15.8054 10.1409 15.8298 9.98361 15.8079 9.82932C15.7861 9.67502 15.719 9.53067 15.6151 9.41449C15.5112 9.29831 15.3753 9.21553 15.2244 9.1766C15.0735 9.13767 14.9144 9.14435 14.7673 9.19578C14.6202 9.24721 14.4917 9.34109 14.3979 9.46556C14.3041 9.59003 14.2494 9.7395 14.2405 9.89508C14.2347 9.99854 14.2492 10.1021 14.2834 10.2C14.3176 10.2978 14.3708 10.3879 14.4399 10.4652C14.5089 10.5424 14.5925 10.6053 14.6859 10.6502C14.7793 10.6951 14.8807 10.7211 14.9841 10.7268V10.7268Z" fill="#0033AD"/>
<path d="M10.7122 18.7763C10.8514 18.7062 10.9667 18.5963 11.0435 18.4607C11.1203 18.325 11.1552 18.1696 11.1437 18.0142C11.1322 17.8587 11.0748 17.7102 10.9789 17.5873C10.883 17.4644 10.7527 17.3727 10.6047 17.3239C10.4567 17.275 10.2975 17.2711 10.1473 17.3127C9.99701 17.3543 9.86249 17.4395 9.76068 17.5576C9.65888 17.6756 9.59437 17.8212 9.5753 17.976C9.55624 18.1307 9.58349 18.2876 9.6536 18.4268C9.74772 18.6134 9.91208 18.7551 10.1106 18.8206C10.309 18.8861 10.5254 18.8702 10.7122 18.7763V18.7763Z" fill="#0033AD"/>
<path d="M15.4924 11.8773C15.3292 12.1267 15.2539 12.4233 15.2782 12.7203C15.3026 13.0173 15.4253 13.2977 15.6269 13.5172C15.8285 13.7366 16.0976 13.8825 16.3915 13.9319C16.6853 13.9812 16.9873 13.9312 17.2495 13.7896C17.5118 13.6481 17.7193 13.4232 17.8394 13.1504C17.9594 12.8776 17.985 12.5727 17.9123 12.2837C17.8395 11.9947 17.6724 11.7383 17.4375 11.5549C17.2026 11.3715 16.9133 11.2717 16.6153 11.2713C16.3925 11.2713 16.1733 11.3266 15.9773 11.4324C15.7812 11.5382 15.6146 11.6911 15.4924 11.8773Z" fill="#0033AD"/>
<path d="M17.8252 17.4851C17.7059 17.2481 17.5189 17.0517 17.2879 16.921C17.0569 16.7902 16.7924 16.7309 16.5277 16.7505C16.263 16.7701 16.0101 16.8678 15.8009 17.0312C15.5918 17.1946 15.4358 17.4163 15.3527 17.6684C15.2696 17.9205 15.2631 18.1915 15.3341 18.4473C15.405 18.703 15.5503 18.932 15.7514 19.1051C15.9525 19.2783 16.2005 19.388 16.4639 19.4202C16.7274 19.4525 16.9945 19.4058 17.2314 19.2862C17.3893 19.2077 17.5301 19.0986 17.6456 18.9653C17.7611 18.832 17.849 18.6771 17.9042 18.5096C17.9594 18.3421 17.9809 18.1653 17.9673 17.9895C17.9538 17.8136 17.9055 17.6422 17.8252 17.4851V17.4851Z" fill="#0033AD"/>
<path d="M20.1665 17.3921C20.0361 17.3066 19.8833 17.2617 19.7275 17.263C19.5716 17.2644 19.4196 17.3119 19.2907 17.3996C19.1619 17.4873 19.0619 17.6113 19.0035 17.7558C18.945 17.9003 18.9308 18.0589 18.9625 18.2116C18.9942 18.3642 19.0705 18.504 19.1816 18.6133C19.2928 18.7226 19.4339 18.7964 19.587 18.8256C19.7402 18.8547 19.8985 18.8377 20.042 18.7769C20.1855 18.716 20.3078 18.6139 20.3933 18.4836C20.4501 18.397 20.4892 18.3001 20.5086 18.1984C20.5279 18.0967 20.527 17.9922 20.506 17.8909C20.4849 17.7895 20.4441 17.6933 20.3858 17.6077C20.3276 17.5221 20.253 17.4489 20.1665 17.3921V17.3921Z" fill="#0033AD"/>
<path d="M22.7361 15.3771C22.7437 15.2447 22.7118 15.113 22.6446 14.9988C22.5773 14.8845 22.4777 14.7928 22.3582 14.7351C22.2388 14.6775 22.105 14.6566 21.9737 14.675C21.8424 14.6935 21.7195 14.7505 21.6206 14.8387C21.5217 14.927 21.4511 15.0427 21.418 15.1711C21.3848 15.2994 21.3904 15.4348 21.4341 15.5599C21.4779 15.6851 21.5578 15.7945 21.6637 15.8743C21.7696 15.954 21.8968 16.0006 22.0292 16.0081C22.2066 16.0181 22.3807 15.9572 22.5133 15.8389C22.6458 15.7206 22.726 15.5545 22.7361 15.3771V15.3771Z" fill="#0033AD"/>
<path d="M24.5909 14.9006C24.5053 14.8958 24.4202 14.9165 24.3464 14.9601C24.2726 15.0036 24.2133 15.0681 24.1761 15.1453C24.139 15.2225 24.1255 15.309 24.1375 15.3939C24.1494 15.4787 24.1863 15.5582 24.2434 15.6221C24.3005 15.686 24.3752 15.7316 24.4582 15.753C24.5412 15.7744 24.6287 15.7708 24.7096 15.7425C24.7905 15.7143 24.8612 15.6626 24.9128 15.5942C24.9643 15.5257 24.9945 15.4435 24.9993 15.358C25.0057 15.2432 24.9663 15.1306 24.8897 15.0448C24.8131 14.9591 24.7057 14.9072 24.5909 14.9006Z" fill="#0033AD"/>
<path d="M22.8445 19.2013C22.7532 19.1415 22.6462 19.1102 22.5371 19.1112C22.428 19.1123 22.3216 19.1456 22.2314 19.2071C22.1413 19.2686 22.0713 19.3554 22.0305 19.4566C21.9897 19.5578 21.9798 19.6689 22.0021 19.7757C22.0243 19.8825 22.0778 19.9804 22.1556 20.0568C22.2335 20.1333 22.3323 20.1849 22.4395 20.2053C22.5467 20.2256 22.6576 20.2137 22.758 20.171C22.8585 20.1284 22.944 20.0569 23.0038 19.9656C23.0436 19.905 23.071 19.8371 23.0845 19.7659C23.098 19.6946 23.0973 19.6214 23.0825 19.5504C23.0677 19.4795 23.0391 19.4121 22.9983 19.3522C22.9574 19.2923 22.9052 19.241 22.8445 19.2013V19.2013Z" fill="#0033AD"/>
<path d="M10.5342 23.2518C10.4626 23.2047 10.3786 23.1799 10.2929 23.1806C10.2072 23.1813 10.1236 23.2074 10.0527 23.2555C9.98176 23.3037 9.92674 23.3718 9.89455 23.4513C9.86237 23.5307 9.85447 23.618 9.87185 23.7019C9.88924 23.7858 9.93112 23.8627 9.99221 23.9229C10.0533 23.983 10.1308 24.0237 10.215 24.0397C10.2993 24.0558 10.3863 24.0465 10.4653 24.0131C10.5442 23.9797 10.6115 23.9236 10.6585 23.852C10.7215 23.7558 10.7438 23.6387 10.7205 23.5262C10.6972 23.4137 10.6302 23.315 10.5342 23.2518V23.2518Z" fill="#0033AD"/>
<path d="M19.6263 23.206C19.55 23.2448 19.487 23.3054 19.4451 23.38C19.4032 23.4546 19.3843 23.54 19.3908 23.6254C19.3974 23.7107 19.429 23.7922 19.4818 23.8596C19.5346 23.9269 19.6062 23.9772 19.6875 24.0039C19.7688 24.0307 19.8562 24.0328 19.9387 24.0099C20.0212 23.9871 20.095 23.9403 20.151 23.8755C20.2069 23.8107 20.2424 23.7309 20.253 23.6459C20.2636 23.561 20.2489 23.4748 20.2106 23.3983C20.185 23.3471 20.1495 23.3016 20.1063 23.2642C20.063 23.2268 20.0128 23.1984 19.9584 23.1805C19.9041 23.1627 19.8468 23.1557 19.7898 23.1601C19.7328 23.1645 19.6772 23.1801 19.6263 23.206V23.206Z" fill="#0033AD"/>
<path d="M14.5895 18.8311C14.7531 18.5815 14.8287 18.2844 14.8045 17.987C14.7802 17.6895 14.6575 17.4087 14.4556 17.1889C14.2538 16.9691 13.9844 16.8228 13.6901 16.7734C13.3958 16.7239 13.0934 16.774 12.8308 16.9158C12.5682 17.0575 12.3603 17.2828 12.2402 17.556C12.12 17.8291 12.0944 18.1346 12.1674 18.4239C12.2403 18.7133 12.4077 18.97 12.6431 19.1536C12.8784 19.3371 13.1682 19.4368 13.4667 19.4371C13.6896 19.438 13.9091 19.383 14.1053 19.2771C14.3014 19.1712 14.4679 19.0179 14.5895 18.8311V18.8311Z" fill="#0033AD"/>
<path d="M11.9088 20.8866C11.798 20.8138 11.668 20.7756 11.5355 20.7767C11.4029 20.7778 11.2736 20.8182 11.164 20.8928C11.0544 20.9674 10.9693 21.0728 10.9196 21.1957C10.8699 21.3186 10.8578 21.4535 10.8848 21.5833C10.9117 21.7132 10.9766 21.8321 11.0712 21.925C11.1657 22.0179 11.2857 22.0808 11.416 22.1055C11.5462 22.1302 11.6809 22.1158 11.8029 22.064C11.925 22.0122 12.0289 21.9254 12.1016 21.8145C12.1991 21.6658 12.2335 21.4846 12.1973 21.3106C12.1612 21.1366 12.0574 20.9841 11.9088 20.8866V20.8866Z" fill="#0033AD"/>
<path d="M15.0346 23.4535C14.9257 23.4473 14.8174 23.4735 14.7234 23.5288C14.6294 23.5841 14.5539 23.666 14.5064 23.7642C14.4589 23.8624 14.4416 23.9725 14.4566 24.0805C14.4716 24.1885 14.5183 24.2897 14.5908 24.3712C14.6632 24.4527 14.7582 24.5109 14.8638 24.5384C14.9693 24.566 15.0806 24.5617 15.1837 24.526C15.2868 24.4903 15.3769 24.4249 15.4429 24.338C15.5088 24.2511 15.5475 24.1467 15.554 24.0378C15.5584 23.9653 15.5485 23.8926 15.5247 23.824C15.5009 23.7554 15.4639 23.6921 15.4156 23.6378C15.3674 23.5835 15.3089 23.5393 15.2435 23.5077C15.1781 23.4761 15.1071 23.4577 15.0346 23.4535V23.4535Z" fill="#0033AD"/>
<path d="M15.0404 19.9815C14.8849 19.9729 14.7302 20.0107 14.5961 20.0899C14.462 20.1692 14.3543 20.2864 14.2868 20.4269C14.2193 20.5673 14.1949 20.7246 14.2167 20.8788C14.2385 21.0331 14.3055 21.1775 14.4093 21.2936C14.5131 21.4098 14.6491 21.4927 14.7999 21.5316C14.9508 21.5706 15.1098 21.564 15.2569 21.5127C15.404 21.4613 15.5326 21.3675 15.6264 21.2431C15.7202 21.1187 15.7751 20.9693 15.784 20.8138C15.7899 20.7103 15.7753 20.6067 15.7411 20.5088C15.707 20.411 15.6538 20.3208 15.5847 20.2435C15.5157 20.1662 15.4321 20.1033 15.3387 20.0583C15.2453 20.0134 15.1439 19.9872 15.0404 19.9815V19.9815Z" fill="#0033AD"/>
<path d="M18.2655 20.8328C18.1475 20.8928 18.0499 20.9865 17.985 21.1019C17.9201 21.2173 17.8909 21.3494 17.901 21.4814C17.9111 21.6135 17.9601 21.7396 18.0418 21.8438C18.1234 21.948 18.2342 22.0257 18.36 22.0671C18.4857 22.1084 18.621 22.1116 18.7486 22.0762C18.8762 22.0408 18.9904 21.9684 19.0769 21.8681C19.1634 21.7678 19.2182 21.6442 19.2345 21.5128C19.2508 21.3814 19.2278 21.2481 19.1685 21.1297C19.1289 21.0508 19.074 20.9804 19.0071 20.9227C18.9403 20.865 18.8626 20.8211 18.7787 20.7936C18.6948 20.766 18.6063 20.7552 18.5182 20.762C18.4301 20.7687 18.3443 20.7928 18.2655 20.8328V20.8328Z" fill="#0033AD"/>
</svg>
