<svg viewBox="0 0 30 30" fill="none" xmlns="http://www.w3.org/2000/svg">
<g clip-path="url(#clip0_1645_687)">
<path d="M30 15.09C29.9821 18.0567 29.085 20.9514 27.422 23.4082C25.7589 25.8649 23.4048 27.7734 20.6571 28.8922C17.9095 30.011 14.8918 30.2899 11.9856 29.6937C9.07945 29.0975 6.41535 27.6528 4.3302 25.5425C2.24506 23.4322 0.832511 20.751 0.271192 17.8379C-0.290127 14.9247 0.0249908 11.9106 1.1767 9.17659C2.3284 6.44257 4.26497 4.11146 6.74151 2.47805C9.21805 0.844635 12.1233 -0.0177221 15.09 2.43516e-05C17.0598 0.0118079 19.008 0.411473 20.8234 1.1762C22.6388 1.94093 24.2858 3.05574 25.6703 4.45698C27.0548 5.85823 28.1498 7.51846 28.8927 9.34288C29.6356 11.1673 30.0118 13.1202 30 15.09V15.09Z" fill="black"/>
<path d="M23.9789 14.3893C23.6416 9.43039 19.3482 5.68379 14.3893 6.0211C11.9189 6.18913 9.7499 7.33931 8.23628 9.06405L8.23629 9.06404L8.23207 9.06099C8.22187 9.07511 8.21234 9.08903 8.20221 9.10313C6.6987 10.8363 5.85309 13.1408 6.02109 15.6108C6.0371 15.8461 6.06481 16.0777 6.09828 16.3074C6.09829 16.3074 6.09829 16.3074 6.0983 16.3075C6.09981 16.3179 6.10135 16.3282 6.10281 16.3386C6.12544 16.4901 6.15171 16.6402 6.1817 16.7889C6.18172 16.789 6.18173 16.7891 6.18175 16.7892C6.1823 16.7919 6.18281 16.7946 6.18334 16.7973C6.21064 16.932 6.24096 17.0654 6.27414 17.1978L6.2742 17.198C6.27423 17.1981 6.27426 17.1982 6.27428 17.1983C7.31367 21.3434 11.1973 24.2791 15.6108 23.9789C20.5696 23.6416 24.3162 19.3482 23.9789 14.3893ZM22.0199 14.5225C22.0614 15.133 22.023 15.7308 21.9143 16.3059C21.9129 16.3026 21.9119 16.2991 21.9105 16.2959V16.2958C21.2581 14.701 19.9674 13.5496 18.8324 12.9135C19.0621 10.2111 18.1453 9.0726 17.1077 8.88735C17.0795 8.88192 17.0511 8.87729 17.0223 8.87372C16.1988 8.76809 15.4456 9.35019 15.3402 10.1737C15.2345 10.9972 15.8166 11.7503 16.6401 11.856C16.7119 11.8651 16.783 11.8676 16.8534 11.8665C16.8579 11.9577 16.8608 12.0546 16.8616 12.1559C15.9022 11.9182 15.0053 11.8717 14.1876 11.9452C13.8818 11.9656 13.5758 12.0041 13.2715 12.061C13.3736 11.1484 13.7159 10.1239 14.3803 9.37421C15.0225 8.64946 15.9772 8.23405 17.0188 8.34066C17.2162 8.36086 17.4269 8.40934 17.6166 8.47303C17.6253 8.47596 17.6346 8.47844 17.6431 8.48143C17.6433 8.48127 17.6434 8.48104 17.6436 8.48086C20.056 9.46365 21.8315 11.7532 22.0199 14.5225ZM15.747 15.8972C15.7463 15.8982 15.7456 15.8991 15.745 15.9001C15.5302 16.2099 15.2748 16.5153 14.975 16.8106C14.5256 16.3324 14.1645 15.8175 13.8906 15.2847C13.8766 15.2561 13.8616 15.229 13.8479 15.2C13.8473 15.199 13.8469 15.1979 13.8463 15.1968C13.6854 14.8558 13.5486 14.4818 13.4427 14.0743C14.0822 13.9238 14.7094 13.8685 15.3084 13.8977C15.3401 13.8998 15.3711 13.9004 15.4031 13.903C15.4042 13.9031 15.4054 13.9032 15.4066 13.9033C15.7818 13.9343 16.1734 14.0027 16.5786 14.1145C16.3892 14.7433 16.1236 15.3139 15.799 15.8178C15.7813 15.8443 15.7653 15.8708 15.747 15.8972ZM12.6716 8.36156C12.67 8.36373 12.6681 8.36577 12.6664 8.36794V8.36795C11.612 9.72975 11.26 11.4222 11.2762 12.7229C8.82118 13.8751 8.29363 15.2383 8.65203 16.2295C8.66142 16.2567 8.67161 16.2836 8.68293 16.3104C9.00323 17.0764 9.8839 17.4375 10.6498 17.1171C11.4158 16.7968 11.777 15.9162 11.4568 15.1502C11.4287 15.0834 11.3954 15.0206 11.3592 14.9602C11.4368 14.9101 11.5201 14.8586 11.6086 14.8066C11.8824 15.7566 12.2875 16.5601 12.7601 17.2315C12.9303 17.4857 13.1162 17.7309 13.3172 17.9656C12.4758 18.3336 11.4172 18.5495 10.4355 18.349C9.48675 18.1552 8.64962 17.5361 8.22117 16.5808C8.13996 16.3997 8.07663 16.1931 8.03694 15.997C8.01252 15.8256 7.99206 15.6529 7.98013 15.4775C7.76083 12.2536 9.76097 9.38354 12.6716 8.36156ZM15.4775 22.0199C13.5631 22.1501 11.7735 21.4971 10.421 20.3364C12.1276 20.5687 13.7692 20.0273 14.8876 19.3628C17.1139 20.9141 18.5588 20.6895 19.2382 19.8834C19.257 19.8616 19.2752 19.8394 19.2927 19.8162C19.796 19.1558 19.6684 18.2125 19.008 17.7094C18.3476 17.2062 17.4043 17.3338 16.9011 17.9941C16.8573 18.0517 16.8196 18.112 16.7854 18.1735C16.7037 18.1317 16.618 18.0855 16.5294 18.0352C17.2158 17.3228 17.7048 16.5689 18.0502 15.8235C18.1855 15.5485 18.3051 15.2642 18.4081 14.9722C19.1479 15.5169 19.8648 16.3261 20.1822 17.277C20.4887 18.1955 20.3711 19.2301 19.758 20.0788C19.6418 20.2396 19.4944 20.3979 19.3444 20.5303C19.3423 20.5322 19.3401 20.5342 19.338 20.5362C18.2654 21.3792 16.9383 21.9205 15.4775 22.0199Z" fill="url(#paint0_linear_1645_687)"/>
<path style="mix-blend-mode:overlay" opacity="0.9" d="M17.1077 8.88742C17.0795 8.88198 17.0511 8.87735 17.0222 8.87378C16.8766 8.85509 16.7333 8.85894 16.5952 8.88084C17.4562 9.34922 18.0839 10.6543 17.7539 13.2285C17.6446 14.0811 17.391 14.8924 17.0249 15.637C16.7282 16.2771 16.3247 16.9234 15.7821 17.5444C16.0427 17.7399 16.2967 17.9034 16.5293 18.0353C17.2157 17.3229 17.7048 16.569 18.0502 15.8235C18.4163 15.079 18.6698 14.2676 18.7792 13.4151C19.1721 10.35 18.2074 9.08375 17.1077 8.88742Z" fill="url(#paint1_radial_1645_687)"/>
<g style="mix-blend-mode:overlay" opacity="0.8">
<path d="M17.7539 13.2285C18.0839 10.6542 17.4562 9.34918 16.5952 8.8808C16.5616 8.88613 16.5286 8.8933 16.4957 8.90086C17.3386 9.38539 17.9451 10.6892 17.6195 13.2285C17.5102 14.0811 17.2567 14.8924 16.8906 15.6369C16.6038 16.2559 16.2159 16.8804 15.7002 17.4825C15.7277 17.5037 15.7549 17.5239 15.7822 17.5444C16.3247 16.9233 16.7284 16.2771 17.025 15.6369C17.3911 14.8924 17.6446 14.0811 17.7539 13.2285Z" fill="white"/>
</g>
<path style="mix-blend-mode:overlay" opacity="0.5" d="M14.4814 19.067C14.4005 19.0054 14.3226 18.9408 14.2447 18.8763C12.9742 19.4064 11.2128 19.7388 9.46393 19.3329C9.75032 19.698 10.0699 20.0351 10.421 20.3364C12.1276 20.5686 13.7692 20.0273 14.8876 19.3628C14.7548 19.2703 14.6197 19.1724 14.4814 19.067Z" fill="url(#paint2_radial_1645_687)"/>
<path style="mix-blend-mode:overlay" opacity="0.6" d="M14.2447 18.8763C14.2058 18.844 14.1666 18.8121 14.1285 18.7792C12.8482 19.2907 11.0789 19.5966 9.33392 19.1617C9.37644 19.2194 9.41967 19.2766 9.46388 19.3329C11.2128 19.7388 12.9741 19.4064 14.2447 18.8763Z" fill="url(#paint3_linear_1645_687)"/>
<path style="mix-blend-mode:overlay" opacity="0.9" d="M8.65241 16.231C8.6618 16.2582 8.672 16.285 8.68331 16.3118C8.74 16.4474 8.81496 16.5695 8.90298 16.6782C8.87812 15.6984 9.69445 14.5022 12.0888 13.5009C12.8819 13.1692 13.7112 12.9831 14.5391 12.9279C15.2418 12.8647 16.0033 12.8912 16.8124 13.0505C16.8514 12.7272 16.866 12.4254 16.8639 12.1579C15.9037 11.9197 15.0062 11.8731 14.188 11.9467C13.3602 12.0019 12.5307 12.188 11.7377 12.5196C8.88685 13.7119 8.27257 15.1804 8.65241 16.231Z" fill="url(#paint4_radial_1645_687)"/>
<g style="mix-blend-mode:overlay" opacity="0.8">
<path d="M12.0889 13.5009C9.69449 14.5022 8.87816 15.6983 8.90301 16.6781C8.92444 16.7046 8.94714 16.7296 8.97015 16.7543C8.96832 15.7821 9.79421 14.605 12.156 13.6172C12.949 13.2856 13.7785 13.0995 14.6063 13.0443C15.2857 12.9832 16.0206 13.0069 16.7998 13.1524C16.8045 13.118 16.8084 13.0843 16.8124 13.0505C16.0033 12.8912 15.2418 12.8647 14.5391 12.9279C13.7113 12.9831 12.8819 13.1692 12.0889 13.5009Z" fill="white"/>
</g>
<path style="mix-blend-mode:overlay" opacity="0.4" d="M18.7815 13.4156C18.7686 13.5165 18.7516 13.6162 18.7347 13.7159C19.829 14.5512 20.9975 15.9104 21.5205 17.6279C21.6935 17.1974 21.8256 16.752 21.911 16.2973C21.2588 14.7033 19.9692 13.5522 18.8345 12.916C18.8208 13.0772 18.8036 13.2431 18.7815 13.4156Z" fill="url(#paint5_radial_1645_687)"/>
<path style="mix-blend-mode:overlay" opacity="0.5" d="M18.7346 13.7159C18.7261 13.7657 18.718 13.8157 18.7086 13.8652C19.7917 14.718 20.9413 16.0974 21.4371 17.8261C21.4659 17.7604 21.4938 17.6944 21.5204 17.6279C20.9974 15.9104 19.8289 14.5512 18.7346 13.7159Z" fill="url(#paint6_linear_1645_687)"/>
<path style="mix-blend-mode:overlay" opacity="0.9" d="M19.2392 19.8814C19.2581 19.8596 19.2762 19.8374 19.2937 19.8142C19.3828 19.6973 19.4511 19.5713 19.5012 19.4408C18.6651 19.9522 17.221 19.8433 15.1567 18.2704C14.4729 17.7494 13.897 17.1242 13.4353 16.4349C13.0293 15.8579 12.6714 15.1852 12.4048 14.4048C12.1053 14.5328 11.8366 14.671 11.6061 14.8065C11.8799 15.7571 12.2883 16.5577 12.7611 17.2295C13.2228 17.9189 13.7987 18.5441 14.4824 19.0651C16.9404 20.9379 18.5193 20.7356 19.2392 19.8814Z" fill="url(#paint7_radial_1645_687)"/>
<g style="mix-blend-mode:overlay" opacity="0.8">
<path d="M15.1566 18.2703C17.221 19.8433 18.665 19.9522 19.5011 19.4408C19.5133 19.409 19.5236 19.3768 19.5335 19.3445C18.6924 19.8322 17.2601 19.7055 15.2238 18.154C14.5401 17.633 13.9642 17.0078 13.5025 16.3185C13.1098 15.7606 12.763 15.1124 12.4993 14.3648C12.4673 14.3779 12.4361 14.3914 12.4047 14.4048C12.6714 15.1852 13.0292 15.8578 13.4353 16.4349C13.897 17.1242 14.4729 17.7494 15.1566 18.2703Z" fill="white"/>
</g>
<path style="mix-blend-mode:overlay" opacity="0.3" d="M11.7365 12.5169C11.8304 12.4777 11.9252 12.4425 12.02 12.4074C12.1962 11.042 12.789 9.35042 14.0149 8.03876C13.5556 8.10426 13.1039 8.21251 12.6674 8.3659C11.613 9.7277 11.261 11.4201 11.2773 12.7208C11.4238 12.6521 11.5761 12.584 11.7365 12.5169Z" fill="url(#paint8_radial_1645_687)"/>
<path style="mix-blend-mode:overlay" opacity="0.4" d="M12.02 12.4074C12.0674 12.3898 12.1146 12.3719 12.1622 12.3553C12.3592 10.9908 12.9791 9.30559 14.2282 8.01184C14.1569 8.01979 14.0858 8.02866 14.0149 8.03877C12.789 9.35044 12.1961 11.042 12.02 12.4074Z" fill="url(#paint9_linear_1645_687)"/>
<path style="mix-blend-mode:multiply" opacity="0.4" d="M14.3893 6.02112C11.919 6.18915 9.74993 7.33933 8.23631 9.06407C8.22487 9.07711 8.21351 9.09017 8.20215 9.10327L8.20224 9.10315C8.49692 9.39546 9.45999 9.97182 9.85032 10.2122C10.6167 9.38796 11.5802 8.74483 12.6717 8.36158C12.7479 8.26336 12.827 8.16644 12.9107 8.07199C13.9272 6.92481 15.3156 6.31847 16.9258 6.31847C17.105 6.31847 17.4701 6.347 17.4779 6.34758C16.5017 6.06712 15.4613 5.9482 14.3893 6.02112Z" fill="url(#paint10_linear_1645_687)"/>
<path style="mix-blend-mode:multiply" opacity="0.4" d="M15.4775 22.0199C13.5631 22.1501 11.7735 21.4971 10.421 20.3364H10.421H10.421C10.2951 20.3193 10.1689 20.2987 10.0425 20.2729C8.54075 19.966 7.32149 19.0669 6.51636 17.6724C6.42675 17.5172 6.34656 17.359 6.27429 17.1984C7.31372 21.3435 11.1974 24.2792 15.6107 23.9789C15.6303 23.5245 15.4963 22.4699 15.4775 22.0199Z" fill="url(#paint11_linear_1645_687)"/>
<path style="mix-blend-mode:multiply" opacity="0.4" d="M23.9789 14.3893C23.7024 14.361 22.3519 14.4676 22.0199 14.5225C22.0614 15.133 22.023 15.7308 21.9143 16.3059C21.9609 16.4203 22.0051 16.5364 22.0448 16.6554C22.53 18.1093 22.3609 19.6149 21.5558 21.0094C21.4678 21.1617 21.3729 21.3076 21.2721 21.4481C21.2701 21.4507 21.2679 21.4538 21.2663 21.456C21.2662 21.4561 21.2704 21.4525 21.2728 21.4503C23.1008 19.6719 24.1656 17.1331 23.9789 14.3893Z" fill="url(#paint12_linear_1645_687)"/>
<path style="mix-blend-mode:multiply" opacity="0.5" d="M17.0188 8.3407C17.2163 8.36091 17.4269 8.40939 17.6166 8.47309C17.6253 8.47601 17.6346 8.47849 17.6432 8.48148C17.6433 8.48131 17.6435 8.48109 17.6436 8.48092C18.42 8.79719 19.1298 9.24943 19.7426 9.80882C19.7439 9.80992 19.7452 9.81082 19.7465 9.81192C20.0418 9.47429 20.6105 9.1033 20.6105 9.1033C20.6105 9.1033 19.7397 8.21264 18.4081 7.93623C17.4758 7.74273 15.3731 7.55517 14.0469 9.81192C14.0469 9.81192 14.0522 9.80694 14.0599 9.79979C14.158 9.6515 14.2623 9.50738 14.3803 9.37426C15.0225 8.64951 15.9773 8.2341 17.0188 8.3407Z" fill="url(#paint13_linear_1645_687)"/>
<path style="mix-blend-mode:multiply" opacity="0.5" d="M19.7578 20.0779C19.6416 20.2388 19.4943 20.397 19.3443 20.5294C19.3374 20.5355 19.3306 20.5423 19.3237 20.5483C19.3238 20.5484 19.3239 20.5487 19.324 20.5489C18.6619 21.0631 17.9153 21.4517 17.1245 21.7027C17.1229 21.7033 17.1214 21.704 17.1198 21.7046C17.2645 22.1291 17.3016 22.8071 17.3016 22.8071C17.3016 22.8071 18.5082 22.4984 19.4134 21.4833C20.0472 20.7727 21.261 19.0454 19.9696 16.7686C19.9696 16.7686 19.9713 16.7756 19.9737 16.7859C20.053 16.945 20.1256 17.1074 20.182 17.2761C20.4885 18.1946 20.3709 19.2292 19.7578 20.0779Z" fill="url(#paint14_linear_1645_687)"/>
<path style="mix-blend-mode:multiply" opacity="0.5" d="M8.22428 16.5834C8.14306 16.4023 8.0797 16.1956 8.04002 15.9995C8.0382 15.9905 8.03572 15.9812 8.034 15.9723C8.0338 15.9723 8.03351 15.9722 8.0333 15.9722C7.91902 15.1417 7.95576 14.3009 8.13383 13.4905C8.13412 13.4888 8.13424 13.4872 8.13452 13.4855C7.69447 13.3986 7.08887 13.0916 7.08887 13.0916C7.08887 13.0916 6.75289 14.291 7.17936 15.5825C7.47791 16.4866 8.36685 18.4014 10.9843 18.4215C10.9843 18.4215 10.9774 18.4194 10.9673 18.4163C10.7899 18.4055 10.6129 18.3872 10.4386 18.3516C9.48986 18.1578 8.65273 17.5387 8.22428 16.5834Z" fill="url(#paint15_linear_1645_687)"/>
<path style="mix-blend-mode:multiply" opacity="0.6" d="M16.6402 11.856C16.712 11.865 16.783 11.8676 16.8534 11.8665C16.8534 11.8665 16.8064 10.9313 16.6916 10.4515C16.5767 9.97176 16.4074 9.65404 16.2214 9.47421C16.0881 9.34538 15.6674 9.18494 15.3402 10.1736C15.2345 10.9972 15.8167 11.7503 16.6402 11.856Z" fill="url(#paint16_linear_1645_687)"/>
<path style="mix-blend-mode:multiply" opacity="0.5" d="M11.4572 15.1516C11.4291 15.0849 11.3958 15.022 11.3596 14.9617C11.3596 14.9617 10.5733 15.4699 10.2152 15.8093C9.85711 16.1486 9.66663 16.4541 9.60391 16.7052C9.55898 16.885 9.6304 17.3296 10.6502 17.1186C11.4162 16.7983 11.7774 15.9176 11.4572 15.1516Z" fill="url(#paint17_linear_1645_687)"/>
<path style="mix-blend-mode:multiply" opacity="0.6" d="M16.9023 17.9915C16.8585 18.0493 16.8208 18.1095 16.7866 18.171C16.7866 18.171 17.62 18.5978 18.0929 18.7383C18.5657 18.8788 18.9256 18.8909 19.1744 18.8198C19.3526 18.7688 19.7019 18.4846 19.0092 17.707C18.3488 17.2037 17.4056 17.3312 16.9023 17.9915Z" fill="url(#paint18_linear_1645_687)"/>
<path style="mix-blend-mode:multiply" opacity="0.3" d="M16.5786 14.1145C16.3892 14.7433 16.1236 15.3139 15.799 15.8178C15.7813 15.8443 15.7652 15.8708 15.7469 15.8972C15.7463 15.8982 15.7456 15.8991 15.745 15.9002C15.5302 16.2099 15.2748 16.5153 14.975 16.8107C15.181 17.0298 15.4039 17.2421 15.6485 17.4434C15.9558 17.6859 16.257 17.8809 16.5293 18.0353C17.2157 17.3228 17.7048 16.5689 18.0502 15.8235C18.1855 15.5485 18.3051 15.2642 18.4081 14.9722C18.0914 14.7391 17.7706 14.5536 17.4751 14.4276C17.1694 14.2973 16.8706 14.195 16.5786 14.1145Z" fill="url(#paint19_linear_1645_687)"/>
<path style="mix-blend-mode:multiply" opacity="0.3" d="M10.421 20.3365C12.1276 20.5687 13.7693 20.0273 14.8876 19.3629C14.7549 19.2704 14.6198 19.1725 14.4814 19.0671C14.0498 18.7382 13.6613 18.3676 13.3172 17.9656C12.4759 18.3337 11.4172 18.5495 10.4356 18.3491C9.4868 18.1553 8.64967 17.5361 8.22122 16.5808C8.14001 16.3997 8.07668 16.1931 8.03699 15.997C8.28493 17.7368 9.16285 19.2566 10.421 20.3365Z" fill="url(#paint20_linear_1645_687)"/>
<path style="mix-blend-mode:multiply" opacity="0.3" d="M14.975 16.8106C14.5256 16.3324 14.1646 15.8174 13.8906 15.2847C13.8766 15.2561 13.8616 15.229 13.8479 15.1999C13.8474 15.1989 13.8469 15.1978 13.8464 15.1968C13.6854 14.8558 13.5486 14.4817 13.4427 14.0743C13.1505 14.143 12.856 14.2297 12.56 14.3407C12.1971 14.4852 11.8782 14.6482 11.6086 14.8066C11.8825 15.7565 12.2875 16.56 12.7601 17.2315C12.9303 17.4856 13.1163 17.7309 13.3172 17.9655C13.678 17.8078 13.9995 17.6224 14.2567 17.4292C14.522 17.23 14.7596 17.0228 14.975 16.8106Z" fill="url(#paint21_linear_1645_687)"/>
<path style="mix-blend-mode:multiply" opacity="0.3" d="M12.6665 8.36799C11.612 9.72979 11.26 11.4222 11.2763 12.7229C11.4233 12.6539 11.5763 12.5855 11.7374 12.5181C12.2375 12.309 12.7521 12.1581 13.2716 12.061C13.3736 11.1485 13.716 10.124 14.3803 9.37425C15.0225 8.64951 15.9773 8.2341 17.0188 8.3407C17.2163 8.36091 17.4269 8.40938 17.6166 8.47308C17.6254 8.47601 17.6346 8.47848 17.6432 8.48148C17.6433 8.48131 17.6435 8.48108 17.6436 8.48091C16.6841 8.09001 15.6241 7.90526 14.5226 7.98018C13.8757 8.02419 13.2558 8.15654 12.6717 8.3616C12.6701 8.36377 12.6682 8.36582 12.6665 8.36799V8.36799Z" fill="url(#paint22_linear_1645_687)"/>
<path style="mix-blend-mode:multiply" opacity="0.3" d="M21.9105 16.2959C21.2581 14.701 19.9674 13.5496 18.8324 12.9136C18.8187 13.0753 18.8014 13.242 18.7792 13.4151C18.7102 13.9527 18.5838 14.4739 18.4081 14.9722C19.1479 15.5169 19.8648 16.3261 20.1822 17.277C20.4887 18.1956 20.3711 19.2301 19.758 20.0788C19.6418 20.2397 19.4944 20.3979 19.3444 20.5303C19.3423 20.5323 19.3401 20.5343 19.338 20.5363C20.6593 19.4978 21.5938 18.001 21.9143 16.306C21.9129 16.3027 21.9119 16.2992 21.9105 16.296V16.2959Z" fill="url(#paint23_linear_1645_687)"/>
<path style="mix-blend-mode:multiply" opacity="0.3" d="M13.2662 13.1433C13.3061 13.4725 13.3667 13.7818 13.4428 14.0744C14.0823 13.9239 14.7095 13.8686 15.3084 13.8977C15.3401 13.8998 15.3712 13.9004 15.4031 13.9031C15.4043 13.9031 15.4055 13.9032 15.4067 13.9033C15.7818 13.9344 16.1735 14.0028 16.5787 14.1145C16.6654 13.8269 16.7376 13.5282 16.7896 13.2161C16.846 12.8282 16.8641 12.4694 16.8616 12.156C15.9022 11.9182 15.0053 11.8717 14.1877 11.9452C13.8819 11.9656 13.5759 12.0041 13.2716 12.061C13.2278 12.4525 13.2275 12.8238 13.2662 13.1433Z" fill="url(#paint24_linear_1645_687)"/>
</g>
<defs>
<linearGradient id="paint0_linear_1645_687" x1="8.85803" y1="21.1424" x2="20.3345" y2="9.66589" gradientUnits="userSpaceOnUse">
<stop offset="0.001139" stop-color="#E6007A"/>
<stop offset="0.207149" stop-color="#703AC2"/>
<stop offset="0.456011" stop-color="#0070EB"/>
<stop offset="0.768132" stop-color="#0297FB"/>
<stop offset="1" stop-color="#0AE2FF"/>
</linearGradient>
<radialGradient id="paint1_radial_1645_687" cx="0" cy="0" r="1" gradientUnits="userSpaceOnUse" gradientTransform="translate(17.5654 13.1783) scale(3.42198 3.42198)">
<stop stop-color="white"/>
<stop offset="1" stop-color="white" stop-opacity="0"/>
</radialGradient>
<radialGradient id="paint2_radial_1645_687" cx="0" cy="0" r="1" gradientUnits="userSpaceOnUse" gradientTransform="translate(12.5072 19.5264) scale(1.99093)">
<stop stop-color="white"/>
<stop offset="1" stop-color="white" stop-opacity="0"/>
</radialGradient>
<linearGradient id="paint3_linear_1645_687" x1="9.51941" y1="19.1896" x2="11.4385" y2="19.1629" gradientUnits="userSpaceOnUse">
<stop stop-color="white" stop-opacity="0"/>
<stop offset="1" stop-color="white"/>
</linearGradient>
<radialGradient id="paint4_radial_1645_687" cx="0" cy="0" r="1" gradientUnits="userSpaceOnUse" gradientTransform="translate(12.1395 13.6892) rotate(-120) scale(3.42198)">
<stop stop-color="white"/>
<stop offset="1" stop-color="white" stop-opacity="0"/>
</radialGradient>
<radialGradient id="paint5_radial_1645_687" cx="0" cy="0" r="1" gradientUnits="userSpaceOnUse" gradientTransform="translate(20.1664 14.8955) rotate(-120) scale(1.99093)">
<stop stop-color="white"/>
<stop offset="1" stop-color="white" stop-opacity="0"/>
</radialGradient>
<linearGradient id="paint6_linear_1645_687" x1="21.3685" y1="17.6515" x2="20.3859" y2="16.0028" gradientUnits="userSpaceOnUse">
<stop stop-color="white" stop-opacity="0"/>
<stop offset="1" stop-color="white"/>
</linearGradient>
<radialGradient id="paint7_radial_1645_687" cx="0" cy="0" r="1" gradientUnits="userSpaceOnUse" gradientTransform="translate(15.1328 17.974) rotate(120) scale(3.42198)">
<stop stop-color="white"/>
<stop offset="1" stop-color="white" stop-opacity="0"/>
</radialGradient>
<radialGradient id="paint8_radial_1645_687" cx="0" cy="0" r="1" gradientUnits="userSpaceOnUse" gradientTransform="translate(12.3258 10.5776) rotate(120) scale(1.99093)">
<stop stop-color="white"/>
<stop offset="1" stop-color="white" stop-opacity="0"/>
</radialGradient>
<linearGradient id="paint9_linear_1645_687" x1="14.1113" y1="8.15852" x2="13.1748" y2="9.83386" gradientUnits="userSpaceOnUse">
<stop stop-color="white" stop-opacity="0"/>
<stop offset="1" stop-color="white"/>
</linearGradient>
<linearGradient id="paint10_linear_1645_687" x1="14.5286" y1="7.30691" x2="11.5965" y2="8.15986" gradientUnits="userSpaceOnUse">
<stop stop-color="#231F20"/>
<stop offset="1" stop-color="white"/>
</linearGradient>
<linearGradient id="paint11_linear_1645_687" x1="8.98756" y1="18.4894" x2="11.4398" y2="21.0482" gradientUnits="userSpaceOnUse">
<stop stop-color="#231F20"/>
<stop offset="1" stop-color="white"/>
</linearGradient>
<linearGradient id="paint12_linear_1645_687" x1="22.1488" y1="18.1037" x2="23.0017" y2="15.5093" gradientUnits="userSpaceOnUse">
<stop stop-color="#231F20"/>
<stop offset="1" stop-color="white"/>
</linearGradient>
<linearGradient id="paint13_linear_1645_687" x1="15.8645" y1="8.79054" x2="19.7955" y2="9.69063" gradientUnits="userSpaceOnUse">
<stop stop-color="#231F20"/>
<stop offset="1" stop-color="white"/>
</linearGradient>
<linearGradient id="paint14_linear_1645_687" x1="19.9453" y1="18.8534" x2="17.2004" y2="21.8077" gradientUnits="userSpaceOnUse">
<stop stop-color="#231F20"/>
<stop offset="1" stop-color="white"/>
</linearGradient>
<linearGradient id="paint15_linear_1645_687" x1="9.19099" y1="17.3581" x2="8.00498" y2="13.5038" gradientUnits="userSpaceOnUse">
<stop stop-color="#231F20"/>
<stop offset="1" stop-color="white"/>
</linearGradient>
<linearGradient id="paint16_linear_1645_687" x1="16.7239" y1="10.2403" x2="15.4801" y2="11.4842" gradientUnits="userSpaceOnUse">
<stop stop-color="#231F20"/>
<stop offset="1" stop-color="white"/>
</linearGradient>
<linearGradient id="paint17_linear_1645_687" x1="10.0161" y1="15.8869" x2="11.7153" y2="16.3422" gradientUnits="userSpaceOnUse">
<stop stop-color="#231F20"/>
<stop offset="1" stop-color="white"/>
</linearGradient>
<linearGradient id="paint18_linear_1645_687" x1="18.2596" y1="18.872" x2="17.8043" y2="17.1728" gradientUnits="userSpaceOnUse">
<stop stop-color="#231F20"/>
<stop offset="1" stop-color="white"/>
</linearGradient>
<linearGradient id="paint19_linear_1645_687" x1="15.6732" y1="17.3612" x2="16.4195" y2="16.3305" gradientUnits="userSpaceOnUse">
<stop stop-color="#231F20"/>
<stop offset="1" stop-color="white"/>
</linearGradient>
<linearGradient id="paint20_linear_1645_687" x1="13.1034" y1="16.915" x2="11.6108" y2="17.6257" gradientUnits="userSpaceOnUse">
<stop stop-color="#231F20"/>
<stop offset="1" stop-color="white"/>
</linearGradient>
<linearGradient id="paint21_linear_1645_687" x1="12.5618" y1="14.4302" x2="13.0238" y2="15.3897" gradientUnits="userSpaceOnUse">
<stop stop-color="#231F20"/>
<stop offset="1" stop-color="white"/>
</linearGradient>
<linearGradient id="paint22_linear_1645_687" x1="14.711" y1="11.4668" x2="14.3912" y2="10.365" gradientUnits="userSpaceOnUse">
<stop stop-color="#231F20"/>
<stop offset="1" stop-color="white"/>
</linearGradient>
<linearGradient id="paint23_linear_1645_687" x1="18.1582" y1="16.511" x2="19.0823" y2="16.7242" gradientUnits="userSpaceOnUse">
<stop stop-color="#231F20"/>
<stop offset="1" stop-color="white"/>
</linearGradient>
<linearGradient id="paint24_linear_1645_687" x1="16.7081" y1="13.3895" x2="15.5354" y2="13.1763" gradientUnits="userSpaceOnUse">
<stop stop-color="#231F20"/>
<stop offset="1" stop-color="white"/>
</linearGradient>
<clipPath id="clip0_1645_687">
<rect width="30" height="30" fill="white"/>
</clipPath>
</defs>
</svg>
