<svg viewBox="0 0 30 30" fill="none" xmlns="http://www.w3.org/2000/svg">
<circle cx="15" cy="15" r="15" fill="#E84142"/>
<path d="M11.1072 20.9042H8.48369C7.93242 20.9042 7.66011 20.9042 7.49406 20.7978C7.31475 20.6817 7.20514 20.4889 7.19186 20.2765C7.1819 20.0806 7.31806 19.8414 7.59037 19.3632L14.0681 7.94531C14.3438 7.46047 14.4832 7.21804 14.6592 7.12838C14.8485 7.03208 15.0743 7.03208 15.2636 7.12838C15.4397 7.21804 15.5791 7.46047 15.8548 7.94531L17.1864 10.27C17.4886 10.798 17.6414 11.0636 17.7078 11.3426C17.7809 11.6448 17.7809 11.9636 17.7078 12.2658C17.6414 12.5448 17.492 12.8104 17.1898 13.3384L13.7871 19.3533C13.4816 19.8879 13.3289 20.1569 13.1163 20.3594C12.8872 20.5786 12.6116 20.738 12.3094 20.8277C12.0337 20.9042 11.7249 20.9042 11.1072 20.9042Z" fill="white"/>
<path d="M21.4916 20.9043H17.7323C17.1777 20.9043 16.8987 20.9043 16.736 20.7981C16.5567 20.6818 16.4471 20.4858 16.4338 20.2733C16.4239 20.0774 16.5633 19.8383 16.8423 19.3568L18.7185 16.1355C18.9943 15.6606 19.1338 15.4248 19.3064 15.3352C19.4957 15.2389 19.7182 15.2389 19.9075 15.3352C20.0836 15.4248 20.2196 15.6606 20.4986 16.1322L22.3816 19.3535C22.6604 19.835 22.8034 20.0741 22.7934 20.27C22.7835 20.4825 22.6704 20.6786 22.4912 20.7947C22.3251 20.9043 22.0461 20.9043 21.4916 20.9043Z" fill="white"/>
</svg>
