<svg viewBox="0 0 30 30" fill="none" xmlns="http://www.w3.org/2000/svg">
<g clip-path="url(#clip0_1016_1908)">
<path d="M30 15.09C29.9822 18.0567 29.085 20.9514 27.422 23.4082C25.759 25.8649 23.4048 27.7734 20.6572 28.8922C17.9095 30.011 14.8918 30.2899 11.9856 29.6937C9.07948 29.0975 6.41538 27.6528 4.33023 25.5425C2.24509 23.4322 0.832541 20.751 0.271223 17.8379C-0.290096 14.9247 0.0250213 11.9106 1.17673 9.17659C2.32843 6.44257 4.265 4.11146 6.74154 2.47805C9.21808 0.844635 12.1234 -0.0177221 15.09 2.43516e-05C17.0599 0.0118079 19.0081 0.411473 20.8235 1.1762C22.6388 1.94093 24.2858 3.05574 25.6703 4.45698C27.0549 5.85823 28.1498 7.51846 28.8927 9.34288C29.6356 11.1673 30.0119 13.1202 30 15.09V15.09Z" fill="#0055D5"/>
<path fill-rule="evenodd" clip-rule="evenodd" d="M8.15997 9.92402C8.15997 9.92402 6.54597 8.63402 6.43497 11.82C6.32397 14.289 6.32697 19.083 7.46997 21.348C7.95297 22.2 8.59797 21.939 9.79796 21.09C10.842 20.319 14.619 16.839 16.2179 15.312C17.8169 13.785 21.0599 9.40502 21.7349 12.381C22.0019 13.632 22.3319 14.694 22.0799 17.469C22.0019 18.324 21.6359 18.972 19.9679 17.814C18.7079 17.004 17.5109 16.134 17.5109 16.134C17.5109 16.134 17.2799 15.72 16.7339 16.392C16.3049 16.929 16.089 17.061 16.7759 17.469C17.4659 17.877 20.9549 20.283 22.2929 20.658C23.3969 20.979 24.0269 20.973 24.0599 18.804C24.0539 17.082 23.9549 12.153 23.3279 10.053C22.8539 8.74502 22.1579 8.15102 20.6549 9.62102C19.1519 11.091 14.412 15.687 11.82 17.769C10.101 19.059 9.36596 20.223 8.71797 18.072C8.26197 16.443 7.67097 11.373 9.53696 12.339C10.704 12.897 11.286 12.894 10.83 13.245C10.374 13.593 9.06296 14.796 9.06296 14.796C9.06296 14.796 8.65797 15.123 8.84696 15.831C9.03596 16.326 9.03596 16.572 10.053 15.615C11.07 14.658 11.82 13.935 11.82 13.935C11.82 13.935 11.982 13.68 12.465 14.151C12.948 14.622 13.026 14.754 13.026 14.754C13.026 14.754 13.155 15.105 13.671 14.496C14.19 13.887 14.523 13.515 13.542 12.945C12.564 12.369 8.15997 9.92402 8.15997 9.92402Z" fill="white"/>
</g>
<defs>
<clipPath id="clip0_1016_1908">
<rect width="30" height="30" fill="white"/>
</clipPath>
</defs>
</svg>
