<svg xmlns="http://www.w3.org/2000/svg" viewBox="0 0 30 30" fill="none">
<g clip-path="url(#clip0_1016_1900)">
<path d="M30 15.09C29.9821 18.0567 29.085 20.9514 27.422 23.4082C25.759 25.8649 23.4048 27.7734 20.6571 28.8922C17.9095 30.011 14.8918 30.2899 11.9856 29.6937C9.07947 29.0975 6.41537 27.6528 4.33022 25.5425C2.24508 23.4322 0.832531 20.751 0.271212 17.8379C-0.290107 14.9247 0.0250109 11.9106 1.17672 9.17659C2.32842 6.44257 4.26499 4.11146 6.74153 2.47805C9.21807 0.844635 12.1234 -0.0177221 15.09 2.43516e-05C17.0598 0.0118079 19.0081 0.411473 20.8234 1.1762C22.6388 1.94093 24.2858 3.05574 25.6703 4.45698C27.0549 5.85823 28.1498 7.51846 28.8927 9.34288C29.6356 11.1673 30.0119 13.1202 30 15.09V15.09Z" fill="black"/>
<path d="M11.538 17.2862C11.1775 17.2862 10.8731 17.0287 10.8125 16.6729L8.76069 4.60943C8.72751 4.4149 8.77214 4.22036 8.88657 4.06016C9.001 3.89995 9.17036 3.79353 9.36375 3.76034C9.76426 3.69283 10.1453 3.96289 10.214 4.3634L12.2657 16.4268C12.2989 16.6214 12.2543 16.8159 12.1399 16.9761C12.0254 17.1363 11.8561 17.2427 11.6627 17.2759C11.6226 17.2828 11.5803 17.2862 11.538 17.2862Z" fill="#CCFF00"/>
<path d="M11.538 17.2862C11.1775 17.2862 10.8731 17.0287 10.8125 16.6729L8.76069 4.60943C8.72751 4.4149 8.77214 4.22036 8.88657 4.06016C9.001 3.89995 9.17036 3.79353 9.36375 3.76034C9.76426 3.69283 10.1453 3.96289 10.214 4.3634L12.2657 16.4268C12.2989 16.6214 12.2543 16.8159 12.1399 16.9761C12.0254 17.1363 11.8561 17.2427 11.6627 17.2759C11.6226 17.2828 11.5803 17.2862 11.538 17.2862Z" fill="#CCFF00"/>
<path d="M14.9766 11.7226C13.8037 11.7226 12.7132 12.0739 11.8012 12.677L12.0495 14.1371C12.8333 13.454 13.8575 13.0386 14.9766 13.0386C17.4381 13.0386 19.4406 15.0411 19.4406 17.5026C19.4406 19.964 17.4381 21.9666 14.9766 21.9666C12.5152 21.9666 10.5126 19.964 10.5126 17.5026C10.5126 17.1741 10.5493 16.8549 10.6168 16.5471L10.2208 14.2229C9.57545 15.1556 9.19668 16.2861 9.19668 17.5037C9.19668 20.6906 11.7897 23.2837 14.9766 23.2837C18.1636 23.2837 20.7566 20.6906 20.7566 17.5037C20.7566 14.3168 18.1647 11.7226 14.9766 11.7226Z" fill="#CCFF00"/>
<path d="M14.6608 20.876C15.0956 20.876 15.4481 20.5236 15.4481 20.0887C15.4481 19.6539 15.0956 19.3015 14.6608 19.3015C14.226 19.3015 13.8735 19.6539 13.8735 20.0887C13.8735 20.5236 14.226 20.876 14.6608 20.876Z" fill="#1CD8D2"/>
<path d="M17.12 19.9595C17.5548 19.9595 17.9072 19.607 17.9072 19.1722C17.9072 18.7374 17.5548 18.3849 17.12 18.3849C16.6851 18.3849 16.3327 18.7374 16.3327 19.1722C16.3327 19.607 16.6851 19.9595 17.12 19.9595Z" fill="#1CD8D2"/>
<path d="M15.1872 18.2715C15.622 18.2715 15.9745 17.9191 15.9745 17.4843C15.9745 17.0494 15.622 16.697 15.1872 16.697C14.7524 16.697 14.3999 17.0494 14.3999 17.4843C14.3999 17.9191 14.7524 18.2715 15.1872 18.2715Z" fill="#1CD8D2"/>
<path d="M12.7429 19.076C13.1777 19.076 13.5302 18.7235 13.5302 18.2887C13.5302 17.8539 13.1777 17.5014 12.7429 17.5014C12.3081 17.5014 11.9556 17.8539 11.9556 18.2887C11.9556 18.7235 12.3081 19.076 12.7429 19.076Z" fill="#1CD8D2"/>
<path d="M17.6235 17.4648C18.0583 17.4648 18.4107 17.1124 18.4107 16.6776C18.4107 16.2427 18.0583 15.8903 17.6235 15.8903C17.1886 15.8903 16.8362 16.2427 16.8362 16.6776C16.8362 17.1124 17.1886 17.4648 17.6235 17.4648Z" fill="#1CD8D2"/>
<path d="M15.7124 15.6671C16.1472 15.6671 16.4997 15.3146 16.4997 14.8798C16.4997 14.445 16.1472 14.0925 15.7124 14.0925C15.2776 14.0925 14.9251 14.445 14.9251 14.8798C14.9251 15.3146 15.2776 15.6671 15.7124 15.6671Z" fill="#1CD8D2"/>
<path d="M13.2453 16.5825C13.6801 16.5825 14.0326 16.23 14.0326 15.7952C14.0326 15.3604 13.6801 15.0079 13.2453 15.0079C12.8105 15.0079 12.458 15.3604 12.458 15.7952C12.458 16.23 12.8105 16.5825 13.2453 16.5825Z" fill="#1CD8D2"/>
</g>
<defs>
<clipPath id="clip0_1016_1900">
<rect width="30" height="30" fill="white"/>
</clipPath>
</defs>
</svg>
