<svg viewBox="0 0 30 30" fill="none" xmlns="http://www.w3.org/2000/svg">
<path d="M15 30C23.2843 30 30 23.2843 30 15C30 6.71573 23.2843 0 15 0C6.71573 0 0 6.71573 0 15C0 23.2843 6.71573 30 15 30Z" fill="#C2A633"/>
<path d="M23.2168 15.1399C23.2168 6.67837 15.9091 6.88816 14.7902 6.88816H10.1399V14.1259H8.2168V15.9091H10.1399V23.1469H15.5595C15.5595 23.1119 23.2168 23.7413 23.2168 15.1399ZM15.4196 20.1049H13.1818V15.8742H16.5385V14.091H13.1818V9.89516H15.3147C16.1189 9.89516 20.1399 10.2098 20.1748 15.2098C20.1748 20.1749 16.014 20.1049 15.4196 20.1049Z" fill="white"/>
</svg>
