<svg viewBox="0 0 30 30" fill="none" xmlns="http://www.w3.org/2000/svg">
<g clip-path="url(#clip0_1106_664)">
<path d="M30 15.09C29.9821 18.0567 29.085 20.9514 27.422 23.4082C25.7589 25.8649 23.4048 27.7734 20.6571 28.8922C17.9095 30.011 14.8918 30.2899 11.9856 29.6937C9.07945 29.0975 6.41535 27.6528 4.3302 25.5425C2.24506 23.4322 0.832511 20.751 0.271192 17.8379C-0.290127 14.9247 0.0249908 11.9106 1.1767 9.17659C2.3284 6.44257 4.26497 4.11146 6.74151 2.47805C9.21805 0.844635 12.1233 -0.0177221 15.09 2.43516e-05C17.0598 0.0118079 19.008 0.411473 20.8234 1.1762C22.6388 1.94093 24.2858 3.05574 25.6703 4.45698C27.0548 5.85823 28.1498 7.51846 28.8927 9.34288C29.6356 11.1673 30.0118 13.1202 30 15.09Z" fill="#E6007A"/>
<path d="M15.2552 10.0208C17.0169 10.0208 18.4449 9.18982 18.4449 8.1648C18.4449 7.13978 17.0169 6.30884 15.2552 6.30884C13.4936 6.30884 12.0656 7.13978 12.0656 8.1648C12.0656 9.18982 13.4936 10.0208 15.2552 10.0208Z" fill="white"/>
<path d="M15.2552 24C17.0169 24 18.4449 23.1691 18.4449 22.1441C18.4449 21.119 17.0169 20.2881 15.2552 20.2881C13.4936 20.2881 12.0656 21.119 12.0656 22.1441C12.0656 23.1691 13.4936 24 15.2552 24Z" fill="white"/>
<path d="M10.8095 12.5877C11.6903 11.0621 11.6847 9.40985 10.797 8.89734C9.90932 8.38483 8.47566 9.20611 7.59485 10.7317C6.71404 12.2573 6.71962 13.9096 7.60731 14.4221C8.49501 14.9346 9.92866 14.1133 10.8095 12.5877Z" fill="white"/>
<path d="M22.9157 19.5772C23.7965 18.0516 23.791 16.3994 22.9033 15.8869C22.0156 15.3744 20.5819 16.1957 19.7011 17.7213C18.8203 19.2469 18.8259 20.8991 19.7136 21.4116C20.6013 21.9241 22.0349 21.1029 22.9157 19.5772Z" fill="white"/>
<path d="M10.797 21.4115C11.6847 20.899 11.6903 19.2468 10.8095 17.7212C9.92866 16.1955 8.495 15.3743 7.60731 15.8868C6.71962 16.3993 6.71404 18.0515 7.59485 19.5771C8.47566 21.1027 9.90932 21.924 10.797 21.4115Z" fill="white"/>
<path d="M22.9032 14.4221C23.7908 13.9096 23.7964 12.2574 22.9156 10.7318C22.0348 9.20617 20.6011 8.38489 19.7135 8.8974C18.8258 9.40991 18.8202 11.0621 19.701 12.5877C20.5818 14.1133 22.0155 14.9346 22.9032 14.4221Z" fill="white"/>
</g>
<defs>
<clipPath id="clip0_1106_664">
<rect width="30" height="30" fill="white"/>
</clipPath>
</defs>
</svg>
