<svg xmlns="http://www.w3.org/2000/svg" viewBox="0 0 30 30" fill="none">
<path d="M0 15C0 6.71572 6.71572 0 15 0C23.2843 0 30 6.71572 30 15C30 23.2843 23.2843 30 15 30C6.71572 30 0 23.2843 0 15Z" fill="#7866D5"/>
<path d="M13.5938 6.79688C7.96875 6.79688 5.625 9.20021 5.625 12.4219V17.5781C5.625 20.7998 7.96875 23.2031 13.5938 23.2031H19.043C24.1406 23.2031 24.375 22.5879 24.375 21.5625C24.375 20.3907 23.9062 19.9219 22.7344 19.9219H13.5938C10.7812 19.9219 9.375 18.5188 9.375 17.1094V16.6406H22.7344C23.6719 16.6406 24.375 16.0254 24.375 15C24.375 13.9746 23.6719 13.3594 22.7344 13.3594H9.375V12.8906C9.375 11.4812 10.7812 10.0781 13.5938 10.0781H22.7344C23.9062 10.0781 24.375 9.60932 24.375 8.4375C24.375 7.41205 24.1406 6.79688 19.043 6.79688H13.5938Z" fill="white"/>
</svg>
