<svg xmlns="http://www.w3.org/2000/svg" role="img" focusable="false" aria-hidden="true" viewBox="0 0 30 30">
<circle fill="#fff" cx="15" cy="15" r="14.5"/>
	<path fill="#e2e2e2" d="M15,1A14,14,0,1,1,1,15,14,14,0,0,1,15,1m0-1A15,15,0,1,0,30,15,15,15,0,0,0,15,0Z"/>
	<polygon fill="#999" points="8.97 16.32 15 24.84 15 19.89 8.97 16.32"/>
	<polygon fill="#333" points="15 19.89 15 24.84 21.03 16.32 15 19.89"/>
	<polygon fill="#999" points="15 5.16 8.97 15.18 15 12.45 15 5.16"/>
	<polygon fill="#333" points="8.97 15.18 15 18.75 15 12.45 8.97 15.18"/>
	<polygon fill="#333" points="21.03 15.18 15 5.16 15 12.45 21.03 15.18"/>
	<polygon fill="#111" points="15 12.45 15 18.75 21.03 15.18 15 12.45"/>
</svg>