<svg xmlns="http://www.w3.org/2000/svg" x="0px" y="0px" viewBox="0 0 30 30" xml:space="preserve">
<circle fill="#FFFFFF" cx="15" cy="15" r="14.5"/>
<path fill="#E2E2E2" d="M15,1c7.7,0,14,6.3,14,14s-6.3,14-14,14S1,22.7,1,15S7.3,1,15,1 M15,0C6.7,0,0,6.7,0,15s6.7,15,15,15
	s15-6.7,15-15S23.3,0,15,0z"/>
<g>
	<circle fill="#303662" cx="10.3" cy="20.4" r="1.6"/>
	<path fill="#303662" d="M12,13.7c-2.4,0.1-3.3,1.4-3.3,2.8h6.2l0,0c2.4-0.1,3.3-1.4,3.3-2.8L12,13.7L12,13.7z"/>
	<path fill="#303662" d="M12.2,8L12.2,8c-2.4,0.1-3.3,1.4-3.3,2.8H20l0,0c2.4-0.1,3.3-1.4,3.3-2.8H12.2z"/>
</g>
</svg>
