<svg xmlns="http://www.w3.org/2000/svg" x="0px" y="0px" viewBox="0 0 30 30" xml:space="preserve">
<path fill="#FFFFFF" d="M15,29.5c8,0,14.5-6.5,14.5-14.5C29.5,7,23,0.5,15,0.5C7,0.5,0.5,7,0.5,15C0.5,23,7,29.5,15,29.5z"/>
<path fill="#E2E2E2" d="M15,1c7.7,0,14,6.3,14,14s-6.3,14-14,14S1,22.7,1,15S7.3,1,15,1z M15,0C6.7,0,0,6.7,0,15s6.7,15,15,15
	s15-6.7,15-15S23.3,0,15,0z"/>
<path fill="#2A5ADA" d="M15,6.2l-1.6,0.9L9.1,9.8l-1.6,0.9v8.8L9,20.4l4.4,2.5l1.6,0.9l1.6-0.9l4.3-2.5l1.6-0.9v-8.8l-1.6-0.9l-4.4-2.5
	L15,6.2z M10.6,17.5v-5.1l4.4-2.4l4.4,2.5v5.1L15,20.1L10.6,17.5z"/>
</svg>
