<svg xmlns="http://www.w3.org/2000/svg" role="img" focusable="false" aria-hidden="true" viewBox="0 0 30 30">
	<g>
		<path fill="#555" d="M30,15A15,15,0,1,1,15,0,15,15,0,0,1,30,15Z"/>
		<path fill="#fff" d="M28.14,15A13.14,13.14,0,1,1,15,1.86,13.14,13.14,0,0,1,28.14,15Z"/>
		<g>
			<path fill="#CCC" d="M24.12,20.67,11.79,25.23a10.4,10.4,0,0,0,3.21.48,10.67,10.67,0,0,0,9.12-5Z"/>
			<path fill="#CCC" d="M25.74,14.91l-18.93,7a10.57,10.57,0,0,0,2,1.83l16.62-6.18A10.67,10.67,0,0,0,25.77,15a.11.11,0,0,1,0-.09Z"/>
			<path fill="#CCC" d="M24.57,10.17l-20,7.41a13.05,13.05,0,0,0,.84,2.28l20-7.41a9.88,9.88,0,0,0-.84-2.28Z"/>
			<path fill="#CCC" d="M21.24,6.27,4.62,12.45A10.31,10.31,0,0,0,4.32,15v.12l18.9-7a10.4,10.4,0,0,0-2-1.83Z"/>
			<path fill="#CCC" d="M15,4.29a10.69,10.69,0,0,0-9.12,5.1L18.27,4.8A10.66,10.66,0,0,0,15,4.29Z"/></g>
		<path fill="#444" d="M12.42,6.3l-2,7.56-1.32.48L8,18.66l1.32-.51-1,3.69H21.9l1.26-4.74H16l.42-1.62L17.73,15l1.14-4.32-1.32.51L18.84,6.3Z"/>
		<path fill="#fff" d="M13,7.08,11.1,14.4l-1.32.51-.63,2.4,1.32-.51L9.36,21H21.27l.81-3.12H14.94l.81-3,1.32-.48L17.7,12l-1.32.51,1.41-5.4Z"/></g></svg>