<svg viewBox="0 0 30 30" fill="none" xmlns="http://www.w3.org/2000/svg">
<path d="M15 30C23.2843 30 30 23.2843 30 15C30 6.71573 23.2843 0 15 0C6.71573 0 0 6.71573 0 15C0 23.2843 6.71573 30 15 30Z" fill="#8247E5"/>
<path d="M19.3706 12.1328C19.056 11.958 18.6364 11.958 18.2867 12.1328L15.8042 13.5664L14.1259 14.5105L11.6434 15.944C11.3287 16.1189 10.9091 16.1189 10.5595 15.944L8.60141 14.8252C8.28672 14.6503 8.07693 14.3007 8.07693 13.9161V11.7133C8.07693 11.3287 8.25176 10.979 8.60141 10.8042L10.5245 9.72026C10.8392 9.54544 11.2588 9.54544 11.6084 9.72026L13.5315 10.8042C13.8462 10.979 14.056 11.3287 14.056 11.7133V13.1468L15.7343 12.1678V10.7342C15.7343 10.3496 15.5594 9.99998 15.2098 9.82516L11.6084 7.76222C11.2937 7.5874 10.8741 7.5874 10.5245 7.76222L6.88812 9.82516C6.53847 9.99998 6.36365 10.3496 6.36365 10.7342V14.8951C6.36365 15.2797 6.53847 15.6294 6.88812 15.8042L10.5944 17.8321C10.9091 18.007 11.3287 18.007 11.6783 17.8321L14.1608 16.4335L15.8392 15.4545L18.3217 14.0559C18.6364 13.8811 19.056 13.8811 19.4056 14.0559L21.3287 15.1398C21.6434 15.3147 21.8532 15.6643 21.8532 16.0489V18.2517C21.8532 18.6363 21.6783 18.986 21.3287 19.1608L19.4056 20.2797C19.0909 20.4545 18.6713 20.4545 18.3217 20.2797L16.3636 19.2307C16.049 19.0559 15.8392 18.7063 15.8392 18.3217V16.8881L14.1608 17.8321V19.2657C14.1608 19.6503 14.3357 20 14.6853 20.1748L18.3217 22.2377C18.6364 22.4126 19.056 22.4126 19.4056 22.2377L23.0769 20.1748C23.3916 20 23.6014 19.6503 23.6014 19.2657V15.1398C23.6014 14.7552 23.4266 14.4056 23.0769 14.2308L19.3706 12.1328Z" fill="white"/>
</svg>
