<svg xmlns="http://www.w3.org/2000/svg" viewBox="0 0 30 30" fill="none">
<path d="M15 30C23.2843 30 30 23.2843 30 15C30 6.71573 23.2843 0 15 0C6.71573 0 0 6.71573 0 15C0 23.2843 6.71573 30 15 30Z" fill="#1AAB9B"/>
<path d="M7.02792 19.8601V12.2377L12.7971 16.5734V19.8251H14.2657V16.2937C14.2657 16.014 14.1258 15.7692 13.916 15.5944L6.92302 10.3147C6.36358 9.89508 5.55939 10.2797 5.55939 11.014V19.8601H7.02792Z" fill="white"/>
<path d="M22.972 19.8601V12.2377L17.2028 16.5734V19.8251H15.7343V16.2937C15.7343 16.014 15.8741 15.7692 16.0839 15.5944L23.0769 10.3147C23.6363 9.89508 24.4405 10.2797 24.4405 11.014V19.8601H22.972Z" fill="white"/>
</svg>
