<svg xmlns="http://www.w3.org/2000/svg" role="img" focusable="false" aria-hidden="true" viewBox="0 0 30 30">
<circle fill="#FFFFFF" cx="15" cy="15" r="14.5"/>
	<path d="M13.1,0.1C6.7,1,1.5,5.8,0.3,12.1c-0.7,4,0.1,8,2.3,11.4c0.8,1.2,2.8,3.2,3.9,3.9c1.7,1.1,3.5,1.9,5.6,2.3
		c1.4,0.3,4.4,0.3,5.8,0c2.9-0.6,5.3-1.9,7.4-3.8c2.2-2.1,3.7-4.7,4.3-7.5c1.1-5-0.3-10.1-3.8-13.8c-2.1-2.2-5-3.8-8-4.4
		C16.6,0,14.3-0.1,13.1,0.1z M16.5,1.3c3.6,0.4,7,2.2,9.2,5c1.4,1.8,2.2,3.4,2.8,5.6c0.3,1.1,0.3,1.5,0.3,3c0,2.1-0.2,3.4-0.9,5.1
		c-3.6,9.3-15.6,11.8-22.6,4.8c-4-4-5.1-9.8-3-15C3.3,7.1,5.5,4.5,8,3.1C10.7,1.5,13.5,0.9,16.5,1.3z"/>
	<path d="M5.3,11.5C3.7,12,2.7,14,3.1,15.8c0.2,0.9,0.4,1.3,1,1.9c0.7,0.8,1.2,1,2.5,1c1,0,1.2,0,1.8-0.3c1.1-0.6,1.7-1.6,1.8-2.9
		c0.2-1.9-0.9-3.6-2.5-4C7.1,11.2,5.9,11.3,5.3,11.5z M7.9,13c0.7,0.5,1.1,1.7,0.8,2.8c-0.5,2-3.1,2.4-4.1,0.6
		c-0.6-1.1-0.3-2.8,0.6-3.4C6,12.4,7.2,12.5,7.9,13z"/>
	<path d="M21.6,11.5c-2.3,0.9-2.9,4.2-1.2,6.3c0.9,1.1,3.1,1.3,4.1,0.4l0.3-0.3l0,0.3c0,0.3,0.1,0.3,0.6,0.3H26l0-1.9l0-1.9h-1.7
		h-1.7v0.6V16h1c1.1,0,1.1,0,0.8,0.7c-0.2,0.4-1,0.9-1.6,0.9c-1.4,0-2.2-1-2.2-2.6c0-1.7,1.1-2.7,2.7-2.4c0.6,0.1,1.2,0.7,1.2,1
		c0,0.1,0.2,0.2,0.7,0.2h0.7l-0.2-0.5c-0.4-1.3-1.3-1.9-2.8-2C22.4,11.3,22,11.3,21.6,11.5z"/>
	<path d="M11.2,15v3.6h0.6h0.6l0-2.4l0-2.4l0.9,2.4l0.9,2.4l0.6,0l0.6,0l0.9-2.4l0.9-2.4l0,2.4l0,2.4l0.6,0l0.6,0l0-3.6l0-3.6h-0.8
		h-0.8l-1,2.7c-0.5,1.5-1,2.6-1,2.6c0,0-0.5-1.2-1-2.6s-0.9-2.5-1-2.6c-0.1-0.1-0.4-0.1-0.9-0.1h-0.8L11.2,15z"/>
</svg>
