<svg viewBox="0 0 30 30" fill="none" xmlns="http://www.w3.org/2000/svg">
<g clip-path="url(#clip0_1016_1909)">
<path d="M30 15.09C29.9822 18.0567 29.085 20.9514 27.422 23.4082C25.759 25.8649 23.4048 27.7734 20.6572 28.8922C17.9095 30.011 14.8918 30.2899 11.9856 29.6937C9.07948 29.0975 6.41538 27.6528 4.33023 25.5425C2.24509 23.4322 0.832541 20.751 0.271223 17.8379C-0.290096 14.9247 0.0250213 11.9106 1.17673 9.17659C2.32843 6.44257 4.265 4.11146 6.74154 2.47805C9.21808 0.844635 12.1234 -0.0177221 15.09 2.43516e-05C17.0599 0.0118079 19.0081 0.411473 20.8235 1.1762C22.6388 1.94093 24.2858 3.05574 25.6703 4.45698C27.0549 5.85823 28.1498 7.51846 28.8927 9.34288C29.6356 11.1673 30.0119 13.1202 30 15.09V15.09Z" fill="#00AEEF"/>
<path d="M10.3116 7.5L8.75 9.06501V15.3142L10.3116 16.8759H16.5616V19.9987H13.4384V18.4371H8.75V21.5633L10.3116 23.125H19.6884L21.25 21.5633V15.3142L19.6884 13.7492H13.4384V10.6259H16.5616V12.1875H21.25V9.0647L19.6884 7.5H10.3116Z" fill="white"/>
</g>
<defs>
<clipPath id="clip0_1016_1909">
<rect width="30" height="30" fill="white"/>
</clipPath>
</defs>
</svg>
