<svg xmlns="http://www.w3.org/2000/svg" role="img" focusable="false" aria-hidden="true" viewBox="0 0 30 30">
<circle fill="#fff" cx="15" cy="15" r="14.5"/>
<path fill="#E2E2E2" d="M15,1c7.7,0,14,6.3,14,14s-6.3,14-14,14S1,22.7,1,15S7.3,1,15,1 M15,0C6.7,0,0,6.7,0,15s6.7,15,15,15s15-6.7,15-15S23.3,0,15,0z"/>
		<path d="M23.6,11.4L10,18.3l-1.2,0.6l-2.4,1.2v1.5l2.4-1.2l2.1-1.1l10-5.1c0.4,3.3-1.9,6.3-5.1,6.7c-0.3,0-0.5,0.1-0.8,0.1
			c-1,0-2-0.3-2.9-0.8l-0.1,0l-1.3,0.6c3.2,2.4,7.8,1.6,10.2-1.6c0.9-1.2,1.4-2.7,1.4-4.3c0-0.2,0-0.4,0-0.6c0-0.5,0.2-1,0.7-1.3
			l0.6-0.3V11.4z M21.2,9.6l-2.1,1l-10,5.1c-0.4-3.3,1.9-6.3,5.1-6.7c1.3-0.2,2.6,0.1,3.7,0.7l1.2-0.6l0.2-0.1
			C16,6.7,11.5,7.5,9.1,10.7C8.2,12,7.7,13.5,7.7,15c0,0.2,0,0.4,0,0.6c0,0.5-0.2,1-0.7,1.3l-0.6,0.3v1.5l1.8-0.9l0.6-0.3l0.6-0.3
			L20,11.7l1.2-0.6l2.4-1.2V8.4L21.2,9.6z"/>
</svg>
