<svg xmlns="http://www.w3.org/2000/svg" role="img" focusable="false" aria-hidden="true" viewBox="0 0 30 30">
<circle fill="#FFFFFF" cx="15" cy="15" r="14.5"/>
<path fill="#E2E2E2" d="M15,1c7.7,0,14,6.3,14,14s-6.3,14-14,14S1,22.7,1,15S7.3,1,15,1 M15,0C6.7,0,0,6.7,0,15s6.7,15,15,15
	s15-6.7,15-15S23.3,0,15,0z"/>
<g>
	<path d="M20.9,7.8h2.4l-5,5.2c-1.8,1.9-4.8,1.9-6.6,0l-5-5.2h2.4l3.8,3.9c1.2,1.2,3,1.2,4.2,0L20.9,7.8z"/>
	<path d="M9.1,22.2H6.7l5-5.2c1.8-1.9,4.8-1.9,6.6,0l5,5.2h-2.4l-3.8-4c-1.2-1.2-3-1.2-4.2,0L9.1,22.2z"/>
</g>
</svg>
