<svg xmlns="http://www.w3.org/2000/svg" version="1.1" x="0px" y="0px" viewBox="0 0 30 30" xml:space="preserve">
<style type="text/css">
	.st0{fill:#FFFFFF;}
	.st1{fill:#E2E2E2;}
	.st2{fill:url(#SVGID_1_);}
	.st3{fill:url(#SVGID_00000049909576499354567150000016517092017139624609_);}
	.st4{fill:url(#SVGID_00000133490277745261316700000010245119276832866990_);}
	.st5{fill:#44004E;}
</style>
<circle fill="#FFFFFF" cx="15" cy="15" r="14.5"/>
<path fill="#E2E2E2" d="M15,1c7.7,0,14,6.3,14,14s-6.3,14-14,14S1,22.7,1,15S7.3,1,15,1 M15,0C6.7,0,0,6.7,0,15s6.7,15,15,15 s15-6.7,15-15S23.3,0,15,0z"/>
<g>
	<g>
		<g>
			<linearGradient id="SVGID_1_" gradientUnits="userSpaceOnUse" x1="17.2174" y1="534.7399" x2="12.1694" y2="526.9667" gradientTransform="matrix(1 0 0 1 0 -512.7745)">
			<stop  offset="0" style="stop-color:#44004E"/>
			<stop  offset="7.280000e-02" style="stop-color:#480052"/>
			<stop  offset="0.1508" style="stop-color:#55005E"/>
			<stop  offset="0.2313" style="stop-color:#6B0073"/>
			<stop  offset="0.3135" style="stop-color:#89008F"/>
			<stop  offset="0.397" style="stop-color:#AF00B4"/>
			<stop  offset="0.4804" style="stop-color:#DE00E0"/>
			<stop  offset="0.5325" style="stop-color:#FF00FF"/>
			</linearGradient>
			<path class="st2" d="M17.2,22L12.8,22v-6.8l2.1-2.9l2.3,2.9V22z"/>

				<linearGradient id="SVGID_00000026129324084800366010000018244316142436026039_" gradientUnits="userSpaceOnUse" x1="20.6524" y1="520.9225" x2="16.626" y2="529.1779" gradientTransform="matrix(1 0 0 1 0 -512.7745)">
				<stop  offset="0" style="stop-color:#44004E"/>
				<stop  offset="7.280000e-02" style="stop-color:#480052"/>
				<stop  offset="0.1508" style="stop-color:#55005E"/>
				<stop  offset="0.2313" style="stop-color:#6B0073"/>
				<stop  offset="0.3135" style="stop-color:#89008F"/>
				<stop  offset="0.397" style="stop-color:#AF00B4"/>
				<stop  offset="0.4804" style="stop-color:#DE00E0"/>
				<stop  offset="0.5325" style="stop-color:#FF00FF"/>
			</linearGradient>
			<path style="fill:url(#SVGID_00000026129324084800366010000018244316142436026039_);" d="M17.1,15.3l-3.6-0.4l1.4-3.4l0,0
				l5.8-3.3l2.3,3.7L17.1,15.3z"/>
			
				<linearGradient id="SVGID_00000145745414190941601340000011415748959309740710_" gradientUnits="userSpaceOnUse" x1="7.0541" y1="524.8601" x2="16.2785" y2="524.296" gradientTransform="matrix(1 0 0 1 0 -512.7745)">
				<stop  offset="0" style="stop-color:#44004E"/>
				<stop  offset="7.280000e-02" style="stop-color:#480052"/>
				<stop  offset="0.1508" style="stop-color:#55005E"/>
				<stop  offset="0.2313" style="stop-color:#6B0073"/>
				<stop  offset="0.3135" style="stop-color:#89008F"/>
				<stop  offset="0.397" style="stop-color:#AF00B4"/>
				<stop  offset="0.4804" style="stop-color:#DE00E0"/>
				<stop  offset="0.5325" style="stop-color:#FF00FF"/>
			</linearGradient>
			<path style="fill:url(#SVGID_00000145745414190941601340000011415748959309740710_);" d="M12.9,15.4L7.1,12l2.1-3.8l5.9,3.4
				l1.4,3.2L12.9,15.4z"/>
		</g>
		<path fill="#44004E" d="M15,22.7c-0.8,0-1.4-0.1-1.8-0.2c-0.3-0.1-0.4-0.3-0.4-0.6v-6.6c0-1-0.4-1.8-1.1-2.4c-1-0.8-2.6-1.1-4.1-0.8
			c-0.2,0.1-0.5,0-0.6-0.2c-0.2-0.2-0.2-0.4-0.1-0.6c0.2-0.5,0.4-1,0.7-1.6c0.4-0.7,0.8-1.2,1.1-1.4c0.2-0.2,0.5-0.2,0.7-0.1
			l5.6,3.2l0.2,0.1c0.8,0.5,1.7,0.5,2.6,0.2c1.2-0.5,2.3-1.7,2.7-3.2c0.1-0.2,0.2-0.4,0.5-0.4c0.2,0,0.4,0,0.6,0.2
			c0.3,0.4,0.7,0.8,1,1.4c0.4,0.7,0.6,1.3,0.7,1.7l0,0c0.1,0.3-0.1,0.5-0.3,0.7l-5.6,3.3l-0.2,0.1c-0.8,0.5-1.3,1.3-1.4,2.2
			c-0.2,1.3,0.4,2.8,1.4,3.9c0.2,0.2,0.2,0.4,0.1,0.6c-0.1,0.2-0.2,0.4-0.5,0.4C16.2,22.6,15.7,22.7,15,22.7z"/>
	</g>
</g>
</svg>
